<svg xmlns="http://www.w3.org/2000/svg" xmlns:xlink="http://www.w3.org/1999/xlink" xmlns:lucid="lucid" width="1325" height="463"><g transform="translate(-436 -258)" lucid:page-tab-id="N9c8FpsKvAWV"><path d="M560 420h1120v60H560z" stroke="#000" fill="#6db1ff"/><path d="M1600 420h80v60h-80z" stroke="#000" fill="#fe7070"/><use xlink:href="#a" transform="matrix(1,0,0,1,1612,432) translate(16.611111111111114 22.75)"/><path d="M1520 420h80v60h-80z" stroke="#000" fill="#fe7070"/><use xlink:href="#b" transform="matrix(1,0,0,1,1532,432) translate(13.305555555555559 22.75)"/><path d="M1440 420h80v60h-80z" stroke="#000" fill="#fe7070"/><use xlink:href="#c" transform="matrix(1,0,0,1,1452,432) translate(3.861111111111118 22.75)"/><path d="M1360 420h80v60h-80z" stroke="#000" fill="#fe7070"/><use xlink:href="#d" transform="matrix(1,0,0,1,1372,432) translate(3.861111111111118 22.75)"/><path d="M1280 420h80v60h-80z" stroke="#000" fill="#ff80df"/><use xlink:href="#a" transform="matrix(1,0,0,1,1292,432) translate(16.611111111111114 22.75)"/><path d="M1200 420h80v60h-80z" stroke="#000" fill="#ff80df"/><use xlink:href="#e" transform="matrix(1,0,0,1,1212,432) translate(13.305555555555559 22.75)"/><path d="M1120 420h80v60h-80z" stroke="#000" fill="#ff80df"/><use xlink:href="#f" transform="matrix(1,0,0,1,1132,432) translate(3.861111111111118 22.75)"/><path d="M1040 420h80v60h-80z" stroke="#000" fill="#ff80df"/><use xlink:href="#g" transform="matrix(1,0,0,1,1052,432) translate(3.861111111111118 22.75)"/><path d="M800 420h80v60h-80z" stroke="#000" fill="#6db1ff"/><use xlink:href="#a" transform="matrix(1,0,0,1,812,432) translate(16.611111111111114 22.75)"/><path d="M720 420h80v60h-80z" stroke="#000" fill="#6db1ff"/><use xlink:href="#h" transform="matrix(1,0,0,1,732,432) translate(10.036111111111115 22.75)"/><path d="M640 420h80v60h-80z" stroke="#000" fill="#6db1ff"/><use xlink:href="#i" transform="matrix(1,0,0,1,652,432) translate(0.5916666666666686 22.75)"/><path d="M560 420h80v60h-80z" stroke="#000" fill="#6db1ff"/><use xlink:href="#j" transform="matrix(1,0,0,1,572,432) translate(0.5916666666666686 22.75)"/><path d="M480 419.33h80v61.34h-80z" stroke="#000" fill="#fff"/><path d="M480 423.67a6 6 0 0 1 6-6h68a6 6 0 0 1 6 6V475a6 6 0 0 1-6 6h-68a6 6 0 0 1-6-6z" stroke="#000" stroke-opacity="0" fill="#fff" fill-opacity="0"/><use xlink:href="#k" transform="matrix(1,0,0,1,485,422.66666666666663) translate(12.308641975308646 20.97222222222222)"/><use xlink:href="#l" transform="matrix(1,0,0,1,485,422.66666666666663) translate(21.19753086419753 42.30555555555556)"/><path d="M880 420h160v60H880z" stroke="#000" fill="#fff"/><use xlink:href="#m" transform="matrix(1,0,0,1,892,432) translate(59.66666666666667 22.75)"/><path d="M1680 320h20v24h-20z" stroke="#000" fill="#fe7070"/><use xlink:href="#n" transform="matrix(1,0,0,1,1685,325) translate(0.061728395061730446 14.222222222222218)"/><path d="M1660 320h20v24h-20z" stroke="#000" fill="#e81313"/><use xlink:href="#o" transform="matrix(1,0,0,1,1665,325) translate(0.061728395061730446 14.222222222222218)"/><path d="M1640 320h20v24h-20z" stroke="#000" fill="#fe7070"/><use xlink:href="#n" transform="matrix(1,0,0,1,1645,325) translate(0.061728395061730446 14.222222222222218)"/><path d="M1620 320h20v24h-20z" stroke="#000" fill="#fe7070"/><use xlink:href="#n" transform="matrix(1,0,0,1,1625,325) translate(0.061728395061730446 14.222222222222218)"/><path d="M1600 320h20v24h-20z" stroke="#000" fill="#ff80df"/><use xlink:href="#n" transform="matrix(1,0,0,1,1605,325) translate(0.061728395061730446 14.222222222222218)"/><path d="M1580 320h20v24h-20z" stroke="#000" fill="#ff80df"/><use xlink:href="#n" transform="matrix(1,0,0,1,1585,325) translate(0.061728395061730446 14.222222222222218)"/><path d="M1560 320h20v24h-20z" stroke="#000" fill="#ff80df"/><use xlink:href="#n" transform="matrix(1,0,0,1,1565,325) translate(0.061728395061730446 14.222222222222218)"/><path d="M1540 320h20v24h-20z" stroke="#000" fill="#d916a8"/><use xlink:href="#o" transform="matrix(1,0,0,1,1545,325) translate(0.061728395061730446 14.222222222222218)"/><path d="M1500 320h20v24h-20z" stroke="#000" fill="#6db1ff"/><use xlink:href="#n" transform="matrix(1,0,0,1,1505,325) translate(0.061728395061730446 14.222222222222218)"/><path d="M1480 320h20v24h-20z" stroke="#000" fill="#6db1ff"/><use xlink:href="#n" transform="matrix(1,0,0,1,1485,325) translate(0.061728395061730446 14.222222222222218)"/><path d="M1460 320h20v24h-20z" stroke="#000" fill="#1071e5"/><use xlink:href="#o" transform="matrix(1,0,0,1,1465,325) translate(0.061728395061730446 14.222222222222218)"/><path d="M1300 320h120v24h-120z" stroke="#000" fill="#979ea8"/><use xlink:href="#p" transform="matrix(1,0,0,1,1305,325) translate(18.456790123456805 14.222222222222218)"/><use xlink:href="#q" transform="matrix(1,0,0,1,1305,325) translate(33.271604938271615 14.222222222222218)"/><path d="M1520 320h20v24h-20z" stroke="#000" fill="#fff"/><use xlink:href="#r" transform="matrix(1,0,0,1,1525,325) translate(-2.4074074074074048 14.222222222222218)"/><path d="M640 560h120.92v100H640z" stroke="#000" fill="#fff"/><use xlink:href="#s" transform="matrix(1,0,0,1,645,565) translate(11.055555555555557 48.71527777777778)"/><path d="M640 560h20.92v20.5H640z" stroke="#000" fill="#ced4db"/><path d="M800 560.25h101.85v100H800z" stroke="#000" fill="#fff"/><use xlink:href="#t" transform="matrix(1,0,0,1,805,565.2502851902627) translate(1.5555555555555571 48.71527777777778)"/><path d="M800 560.25h20v20h-20z" stroke="#000" fill="#ced4db"/><path d="M1520 560h60v60h-60z" stroke="#000" fill="#fff"/><use xlink:href="#u" transform="matrix(1,0,0,1,1525,565) translate(9.197530864197535 29.84722222222222)"/><path d="M1520 560h20v20h-20z" stroke="#000" fill="#ced4db"/><path d="M661.92 570.25h121.2" stroke="#000" fill="none"/><path d="M661.94 570.73h-.52v-.96h.52z" stroke="#000" stroke-width=".05"/><path d="M797.88 570.25l-14.26 4.64v-9.28z" stroke="#000"/><path d="M1575.07 481v.2l-.08.68-.13.66-.18.65-.23.63-.28.66-.36.66-.42.7-.52.72-.65.78-.8.83-1.05.9-1.35 1.05-1.84 1.2-2.62 1.45-4.1 1.9-8.3 3.08-29.98 10.02-4.76 2.2-3.13 1.73-2.23 1.47-1.68 1.28-1.32 1.16-1.04 1.07-.83 1-.32.44-1.63 2.5-1.53 2.94-1.36 3.4-1.13 3.85-.82 4.27-.4 4.53.03 4.55.44 4.32.8 3.88 1 3.34 1.17 2.8 1.24 2.3.44.66" stroke="#000" stroke-linejoin="round" fill="none"/><path d="M1575.54 481.03l-.95-.03v-.5h.96z" stroke="#000" stroke-width=".05"/><path d="M1517.2 568.67l-14.64-3.3 4.74-7.98z" stroke="#000"/><path d="M1040 556h80v84h-80z" stroke="#000" fill="#fff"/><use xlink:href="#v" transform="matrix(1,0,0,1,1045,561) translate(15.246913580246915 40.90277777777778)"/><path d="M1040 556h20v20h-20z" stroke="#000" fill="#ced4db"/><path d="M1080.7 480.5l-.03.68-.15 1.1-.25 1.06-.35 1.04-.46 1.03-.6 1.06-.74 1.1-.98 1.16-1.3 1.28-1.78 1.46-2.63 1.78-4.48 2.43-30.7 13.8-3.4 2.3-2.43 1.98-1.82 1.8-1.4 1.68-.32.4-1.63 2.52-1.53 2.93-1.36 3.4-1.13 3.85-.82 4.27-.4 4.53.03 4.55.44 4.32.8 3.88 1 3.34 1.17 2.8 1.24 2.3.44.66" stroke="#000" stroke-linejoin="round" fill="none"/><path d="M1080.7 480.5l.03-.5" stroke="#000" fill="none"/><path d="M1037.2 568.17l-14.64-3.32 4.74-7.96z" stroke="#000"/><path d="M1470 345v4.5a6 6 0 0 1-6 6H686a6 6 0 0 0-6 6v41.62" stroke="#000" fill="none"/><path d="M1470.47 345h-.94v-.5h.94z" stroke="#000" stroke-width=".05"/><path d="M680 417.88l-4.63-14.26h9.26z" stroke="#000"/><g fill="none"><path d="M874 380a6 6 0 0 1 6 6v28a6 6 0 0 1-6 6H566a6 6 0 0 1-6-6v-28a6 6 0 0 1 6-6z"/><path d="M560 420c0-5.52 4.48-10 10-10h140c5.52 0 10-4.48 10-10 0 5.52 4.48 10 10 10h140c5.52 0 10 4.48 10 10" stroke="#000"/></g><use xlink:href="#w" transform="matrix(1,-2.4492935982947064e-16,2.4492935982947064e-16,1,565.0000000000001,380.00000000000006) translate(140.70987654320987 17.77777777777778)"/><g fill="none"><path d="M1354 380a6 6 0 0 1 6 6v28a6 6 0 0 1-6 6h-308a6 6 0 0 1-6-6v-28a6 6 0 0 1 6-6z"/><path d="M1040 420c0-5.52 4.48-10 10-10h140c5.52 0 10-4.48 10-10 0 5.52 4.48 10 10 10h140c5.52 0 10 4.48 10 10" stroke="#000"/></g><use xlink:href="#x" transform="matrix(1,-2.4492935982947064e-16,2.4492935982947064e-16,1,1045,380.0000000000001) translate(144.3827160493827 17.77777777777778)"/><g fill="none"><path d="M1674 380a6 6 0 0 1 6 6v28a6 6 0 0 1-6 6h-308a6 6 0 0 1-6-6v-28a6 6 0 0 1 6-6z"/><path d="M1360 420c0-5.52 4.48-10 10-10h140c5.52 0 10-4.48 10-10 0 5.52 4.48 10 10 10h140c5.52 0 10 4.48 10 10" stroke="#000"/></g><use xlink:href="#y" transform="matrix(1,-2.4492935982947064e-16,2.4492935982947064e-16,1,1365,380.0000000000001) translate(144.3827160493827 17.77777777777778)"/><path d="M1550 345v22a6 6 0 0 1-6 6h-458a6 6 0 0 0-6 6v24.12" stroke="#000" fill="none"/><path d="M1550.47 345h-.94v-.5h.94z" stroke="#000" stroke-width=".05"/><path d="M1080 417.88l-4.63-14.26h9.27z" stroke="#000"/><path d="M1670 345v37.5a6 6 0 0 1-6 6h-98a6 6 0 0 0-6 6v8.62" stroke="#000" fill="none"/><path d="M1670.47 345h-.94v-.5h.94z" stroke="#000" stroke-width=".05"/><path d="M1560 417.88l-4.63-14.26h9.27z" stroke="#000"/><path d="M680.7 480.5l-.03.68-.15 1.1-.25 1.06-.35 1.04-.46 1.03-.6 1.06-.74 1.1-.98 1.16-1.3 1.28-1.78 1.46-2.63 1.78-4.48 2.43-30.7 13.8-3.4 2.3-2.43 1.98-1.82 1.8-1.4 1.68-.32.4-1.63 2.52-1.53 2.93-1.36 3.4-1.13 3.85-.82 4.27-.4 4.53.03 4.55.44 4.32.8 3.88 1 3.34 1.17 2.8 1.24 2.3.44.66" stroke="#000" stroke-linejoin="round" fill="none"/><path d="M680.7 480.5l.03-.5" stroke="#000" fill="none"/><path d="M637.2 568.17l-14.64-3.32 4.74-7.96z" stroke="#000"/><path d="M1440 320h20v24h-20z" stroke="#000" fill="#6db1ff"/><use xlink:href="#n" transform="matrix(1,0,0,1,1445,325) translate(0.061728395061730446 14.222222222222218)"/><path d="M1420 320h20v24h-20z" stroke="#000" fill="#fff"/><use xlink:href="#n" transform="matrix(1,0,0,1,1425,325) translate(0.061728395061730446 14.222222222222218)"/><path d="M1430 319v-13a6 6 0 0 0-6-6H526a6 6 0 0 0-6 6v96.45" stroke="#000" fill="none"/><path d="M1430.47 319.5h-.94v-.5h.94z" stroke="#000" stroke-width=".05"/><path d="M520 417.2l-4.63-14.25h9.26z" stroke="#000"/><defs><path d="M118-107v75H92v-75H18v-26h74v-75h26v75h74v26h-74" id="z"/><path d="M101-251c68 0 85 55 85 127S166 4 100 4C33 4 14-52 14-124c0-73 17-127 87-127zm-1 229c47 0 54-49 54-102s-4-102-53-102c-51 0-55 48-55 102 0 53 5 102 54 102" id="A"/><g id="a"><use transform="matrix(0.055555555555555546,0,0,0.055555555555555546,0,0)" xlink:href="#z"/><use transform="matrix(0.055555555555555546,0,0,0.055555555555555546,11.666666666666664,0)" xlink:href="#A"/></g><path d="M101-251c82-7 93 87 43 132L82-64C71-53 59-42 53-27h129V0H18c2-99 128-94 128-182 0-28-16-43-45-43s-46 15-49 41l-32-3c6-41 34-60 81-64" id="B"/><path d="M111-209c0 50-58 54-76 90h78v20H8l-1-18c15-40 70-45 80-90-1-15-9-25-26-24-17 0-27 9-29 25l-23-2c5-26 22-42 53-42 30 0 49 14 49 41" id="C"/><g id="b"><use transform="matrix(0.055555555555555546,0,0,0.055555555555555546,0,0)" xlink:href="#z"/><use transform="matrix(0.055555555555555546,0,0,0.055555555555555546,11.666666666666664,0)" xlink:href="#B"/><use transform="matrix(0.055555555555555546,0,0,0.055555555555555546,22.77777777777777,0)" xlink:href="#C"/></g><path d="M80-196l47-18 7 23-49 13 32 44-20 13-27-46-27 45-21-12 33-44-49-13 8-23 47 19-2-53h23" id="D"/><g id="c"><use transform="matrix(0.055555555555555546,0,0,0.055555555555555546,0,0)" xlink:href="#z"/><use transform="matrix(0.055555555555555546,0,0,0.055555555555555546,11.666666666666664,0)" xlink:href="#B"/><use transform="matrix(0.055555555555555546,0,0,0.055555555555555546,22.77777777777777,0)" xlink:href="#D"/><use transform="matrix(0.055555555555555546,0,0,0.055555555555555546,30.55555555555555,0)" xlink:href="#B"/><use transform="matrix(0.055555555555555546,0,0,0.055555555555555546,41.66666666666666,0)" xlink:href="#C"/></g><path d="M126-127c33 6 58 20 58 59 0 88-139 92-164 29-3-8-5-16-6-25l32-3c6 27 21 44 54 44 32 0 52-15 52-46 0-38-36-46-79-43v-28c39 1 72-4 72-42 0-27-17-43-46-43-28 0-47 15-49 41l-32-3c6-42 35-63 81-64 48-1 79 21 79 65 0 36-21 52-52 59" id="E"/><g id="d"><use transform="matrix(0.055555555555555546,0,0,0.055555555555555546,0,0)" xlink:href="#z"/><use transform="matrix(0.055555555555555546,0,0,0.055555555555555546,11.666666666666664,0)" xlink:href="#E"/><use transform="matrix(0.055555555555555546,0,0,0.055555555555555546,22.77777777777777,0)" xlink:href="#D"/><use transform="matrix(0.055555555555555546,0,0,0.055555555555555546,30.55555555555555,0)" xlink:href="#B"/><use transform="matrix(0.055555555555555546,0,0,0.055555555555555546,41.66666666666666,0)" xlink:href="#C"/></g><path d="M78-176c19 5 35 13 35 36 0 52-87 57-104 18-2-5-3-10-4-15l24-2c2 17 12 24 32 24 18 0 28-8 28-26 0-23-21-25-44-24v-19c21 0 39-4 40-24 0-15-9-23-25-23s-27 8-28 24l-24-3c1-50 101-56 101-2 0 21-12 32-31 36" id="F"/><g id="e"><use transform="matrix(0.055555555555555546,0,0,0.055555555555555546,0,0)" xlink:href="#z"/><use transform="matrix(0.055555555555555546,0,0,0.055555555555555546,11.666666666666664,0)" xlink:href="#B"/><use transform="matrix(0.055555555555555546,0,0,0.055555555555555546,22.77777777777777,0)" xlink:href="#F"/></g><g id="f"><use transform="matrix(0.055555555555555546,0,0,0.055555555555555546,0,0)" xlink:href="#z"/><use transform="matrix(0.055555555555555546,0,0,0.055555555555555546,11.666666666666664,0)" xlink:href="#B"/><use transform="matrix(0.055555555555555546,0,0,0.055555555555555546,22.77777777777777,0)" xlink:href="#D"/><use transform="matrix(0.055555555555555546,0,0,0.055555555555555546,30.55555555555555,0)" xlink:href="#B"/><use transform="matrix(0.055555555555555546,0,0,0.055555555555555546,41.66666666666666,0)" xlink:href="#F"/></g><g id="g"><use transform="matrix(0.055555555555555546,0,0,0.055555555555555546,0,0)" xlink:href="#z"/><use transform="matrix(0.055555555555555546,0,0,0.055555555555555546,11.666666666666664,0)" xlink:href="#E"/><use transform="matrix(0.055555555555555546,0,0,0.055555555555555546,22.77777777777777,0)" xlink:href="#D"/><use transform="matrix(0.055555555555555546,0,0,0.055555555555555546,30.55555555555555,0)" xlink:href="#B"/><use transform="matrix(0.055555555555555546,0,0,0.055555555555555546,41.66666666666666,0)" xlink:href="#F"/></g><path d="M14-99v-19h37v-109l-35 25v-22c18-9 27-27 58-24v130h38v19H14" id="G"/><path d="M104-165c0-36-50-38-79-26v-73h90v16H46v36c40-10 81 8 81 47 0 51-64 58-109 44v-20c28 15 86 17 86-24" id="H"/><g id="h"><use transform="matrix(0.055555555555555546,0,0,0.055555555555555546,0,0)" xlink:href="#z"/><use transform="matrix(0.055555555555555546,0,0,0.055555555555555546,11.666666666666664,0)" xlink:href="#B"/><use transform="matrix(0.05,0,0,0.05,22.77777777777777,0)" xlink:href="#G"/><use transform="matrix(0.05,0,0,0.05,28.727777777777774,0)" xlink:href="#H"/></g><g id="i"><use transform="matrix(0.055555555555555546,0,0,0.055555555555555546,0,0)" xlink:href="#z"/><use transform="matrix(0.055555555555555546,0,0,0.055555555555555546,11.666666666666664,0)" xlink:href="#B"/><use transform="matrix(0.055555555555555546,0,0,0.055555555555555546,22.77777777777777,0)" xlink:href="#D"/><use transform="matrix(0.055555555555555546,0,0,0.055555555555555546,30.55555555555555,0)" xlink:href="#B"/><use transform="matrix(0.05,0,0,0.05,41.66666666666666,0)" xlink:href="#G"/><use transform="matrix(0.05,0,0,0.05,47.61666666666666,0)" xlink:href="#H"/></g><g id="j"><use transform="matrix(0.055555555555555546,0,0,0.055555555555555546,0,0)" xlink:href="#z"/><use transform="matrix(0.055555555555555546,0,0,0.055555555555555546,11.666666666666664,0)" xlink:href="#E"/><use transform="matrix(0.055555555555555546,0,0,0.055555555555555546,22.77777777777777,0)" xlink:href="#D"/><use transform="matrix(0.055555555555555546,0,0,0.055555555555555546,30.55555555555555,0)" xlink:href="#B"/><use transform="matrix(0.05,0,0,0.05,41.66666666666666,0)" xlink:href="#G"/><use transform="matrix(0.05,0,0,0.05,47.61666666666666,0)" xlink:href="#H"/></g><path fill="#3a414a" d="M30 0v-248h33v221h125V0H30" id="I"/><path fill="#3a414a" d="M141-36C126-15 110 5 73 4 37 3 15-17 15-53c-1-64 63-63 125-63 3-35-9-54-41-54-24 1-41 7-42 31l-33-3c5-37 33-52 76-52 45 0 72 20 72 64v82c-1 20 7 32 28 27v20c-31 9-61-2-59-35zM48-53c0 20 12 33 32 33 41-3 63-29 60-74-43 2-92-5-92 41" id="J"/><path fill="#3a414a" d="M114-163C36-179 61-72 57 0H25l-1-190h30c1 12-1 29 2 39 6-27 23-49 58-41v29" id="K"/><path fill="#3a414a" d="M177-190C167-65 218 103 67 71c-23-6-38-20-44-43l32-5c15 47 100 32 89-28v-30C133-14 115 1 83 1 29 1 15-40 15-95c0-56 16-97 71-98 29-1 48 16 59 35 1-10 0-23 2-32h30zM94-22c36 0 50-32 50-73 0-42-14-75-50-75-39 0-46 34-46 75s6 73 46 73" id="L"/><path fill="#3a414a" d="M100-194c63 0 86 42 84 106H49c0 40 14 67 53 68 26 1 43-12 49-29l28 8c-11 28-37 45-77 45C44 4 14-33 15-96c1-61 26-98 85-98zm52 81c6-60-76-77-97-28-3 7-6 17-6 28h103" id="M"/><g id="k"><use transform="matrix(0.049382716049382706,0,0,0.049382716049382706,0,0)" xlink:href="#I"/><use transform="matrix(0.049382716049382706,0,0,0.049382716049382706,9.87654320987654,0)" xlink:href="#J"/><use transform="matrix(0.049382716049382706,0,0,0.049382716049382706,19.75308641975308,0)" xlink:href="#K"/><use transform="matrix(0.049382716049382706,0,0,0.049382716049382706,25.629629629629626,0)" xlink:href="#L"/><use transform="matrix(0.049382716049382706,0,0,0.049382716049382706,35.50617283950616,0)" xlink:href="#M"/></g><path fill="#3a414a" d="M24-231v-30h32v30H24zM24 0v-190h32V0H24" id="N"/><path fill="#3a414a" d="M135-143c-3-34-86-38-87 0 15 53 115 12 119 90S17 21 10-45l28-5c4 36 97 45 98 0-10-56-113-15-118-90-4-57 82-63 122-42 12 7 21 19 24 35" id="O"/><path fill="#3a414a" d="M59-47c-2 24 18 29 38 22v24C64 9 27 4 27-40v-127H5v-23h24l9-43h21v43h35v23H59v120" id="P"/><g id="l"><use transform="matrix(0.049382716049382706,0,0,0.049382716049382706,0,0)" xlink:href="#I"/><use transform="matrix(0.049382716049382706,0,0,0.049382716049382706,9.87654320987654,0)" xlink:href="#N"/><use transform="matrix(0.049382716049382706,0,0,0.049382716049382706,13.777777777777775,0)" xlink:href="#O"/><use transform="matrix(0.049382716049382706,0,0,0.049382716049382706,22.666666666666664,0)" xlink:href="#P"/></g><path d="M24 0v-54h51V0H24" id="Q"/><g id="m"><use transform="matrix(0.055555555555555546,0,0,0.055555555555555546,0,0)" xlink:href="#Q"/><use transform="matrix(0.055555555555555546,0,0,0.055555555555555546,5.5555555555555545,0)" xlink:href="#Q"/><use transform="matrix(0.055555555555555546,0,0,0.055555555555555546,11.111111111111109,0)" xlink:href="#Q"/></g><use transform="matrix(0.0493827160493827,0,0,0.0493827160493827,0,0)" xlink:href="#A" id="n"/><path d="M27 0v-27h64v-190l-56 39v-29l58-41h29v221h61V0H27" id="R"/><use transform="matrix(0.0493827160493827,0,0,0.0493827160493827,0,0)" xlink:href="#R" id="o"/><path d="M64 0c3-98 48-159 88-221H18v-27h164v26C143-157 98-101 97 0H64" id="S"/><use transform="matrix(0.0493827160493827,0,0,0.0493827160493827,0,0)" xlink:href="#S" id="p"/><path d="M84 4C-5 8 30-112 23-190h32v120c0 31 7 50 39 49 72-2 45-101 50-169h31l1 190h-30c-1-10 1-25-2-33-11 22-28 36-60 37" id="T"/><path d="M117-194c89-4 53 116 60 194h-32v-121c0-31-8-49-39-48C34-167 62-67 57 0H25l-1-190h30c1 10-1 24 2 32 11-22 29-35 61-36" id="U"/><path d="M135-143c-3-34-86-38-87 0 15 53 115 12 119 90S17 21 10-45l28-5c4 36 97 45 98 0-10-56-113-15-118-90-4-57 82-63 122-42 12 7 21 19 24 35" id="V"/><path d="M100-194c63 0 86 42 84 106H49c0 40 14 67 53 68 26 1 43-12 49-29l28 8c-11 28-37 45-77 45C44 4 14-33 15-96c1-61 26-98 85-98zm52 81c6-60-76-77-97-28-3 7-6 17-6 28h103" id="W"/><path d="M85-194c31 0 48 13 60 33l-1-100h32l1 261h-30c-2-10 0-23-3-31C134-8 116 4 85 4 32 4 16-35 15-94c0-66 23-100 70-100zm9 24c-40 0-46 34-46 75 0 40 6 74 45 74 42 0 51-32 51-76 0-42-9-74-50-73" id="X"/><g id="q"><use transform="matrix(0.0493827160493827,0,0,0.0493827160493827,0,0)" xlink:href="#T"/><use transform="matrix(0.0493827160493827,0,0,0.0493827160493827,9.876543209876539,0)" xlink:href="#U"/><use transform="matrix(0.0493827160493827,0,0,0.0493827160493827,19.753086419753078,0)" xlink:href="#T"/><use transform="matrix(0.0493827160493827,0,0,0.0493827160493827,29.62962962962962,0)" xlink:href="#V"/><use transform="matrix(0.0493827160493827,0,0,0.0493827160493827,38.518518518518505,0)" xlink:href="#W"/><use transform="matrix(0.0493827160493827,0,0,0.0493827160493827,48.39506172839504,0)" xlink:href="#X"/></g><path d="M33 0v-38h34V0H33" id="Y"/><g id="r"><use transform="matrix(0.0493827160493827,0,0,0.0493827160493827,0,0)" xlink:href="#Y"/><use transform="matrix(0.0493827160493827,0,0,0.0493827160493827,4.9382716049382696,0)" xlink:href="#Y"/><use transform="matrix(0.0493827160493827,0,0,0.0493827160493827,9.876543209876539,0)" xlink:href="#Y"/></g><path d="M99-251c64 0 84 50 84 122C183-37 130 33 47-8c-14-7-20-23-25-40l30-5c6 39 69 39 84 7 9-19 16-44 16-74-10 22-31 35-62 35-49 0-73-33-73-83 0-54 28-83 82-83zm-1 141c31-1 51-18 51-49 0-36-14-67-51-67-34 0-49 23-49 58 0 34 15 58 49 58" id="Z"/><path d="M110-160c48 1 74 30 74 79 0 53-28 85-80 85-65 0-83-55-86-122-5-90 50-162 133-122 14 7 22 21 27 39l-31 6c-5-40-67-38-82-6-9 19-15 44-15 74 11-20 30-34 60-33zm-7 138c34 0 49-23 49-58s-16-56-50-56c-29 0-50 16-49 49 1 36 15 65 50 65" id="aa"/><path d="M160-131c35 5 61 23 61 61C221 17 115-2 30 0v-248c76 3 177-17 177 60 0 33-19 50-47 57zm-97-11c50-1 110 9 110-42 0-47-63-36-110-37v79zm0 115c55-2 124 14 124-45 0-56-70-42-124-44v89" id="ab"/><g id="s"><use transform="matrix(0.06172839506172839,0,0,0.06172839506172839,0,0)" xlink:href="#B"/><use transform="matrix(0.06172839506172839,0,0,0.06172839506172839,12.345679012345679,0)" xlink:href="#B"/><use transform="matrix(0.06172839506172839,0,0,0.06172839506172839,24.691358024691358,0)" xlink:href="#Z"/><use transform="matrix(0.06172839506172839,0,0,0.06172839506172839,37.03703703703704,0)" xlink:href="#R"/><use transform="matrix(0.06172839506172839,0,0,0.06172839506172839,49.382716049382715,0)" xlink:href="#S"/><use transform="matrix(0.06172839506172839,0,0,0.06172839506172839,61.72839506172839,0)" xlink:href="#aa"/><use transform="matrix(0.06172839506172839,0,0,0.06172839506172839,74.07407407407408,0)" xlink:href="#ab"/></g><path d="M134-131c28 9 52 24 51 62-1 50-34 73-85 73S17-19 16-69c0-36 21-54 49-61-75-25-45-126 34-121 46 3 78 18 79 63 0 33-17 51-44 57zm-34-11c31 1 46-15 46-44 0-28-17-43-47-42-29 0-46 13-45 42 1 28 16 44 46 44zm1 122c35 0 51-18 51-52 0-30-18-46-53-46-33 0-51 17-51 47 0 34 19 51 53 51" id="ac"/><g id="t"><use transform="matrix(0.06172839506172839,0,0,0.06172839506172839,0,0)" xlink:href="#R"/><use transform="matrix(0.06172839506172839,0,0,0.06172839506172839,12.345679012345679,0)" xlink:href="#Z"/><use transform="matrix(0.06172839506172839,0,0,0.06172839506172839,24.691358024691358,0)" xlink:href="#aa"/><use transform="matrix(0.06172839506172839,0,0,0.06172839506172839,37.03703703703704,0)" xlink:href="#Z"/><use transform="matrix(0.06172839506172839,0,0,0.06172839506172839,49.382716049382715,0)" xlink:href="#A"/><use transform="matrix(0.06172839506172839,0,0,0.06172839506172839,61.72839506172839,0)" xlink:href="#ac"/><use transform="matrix(0.06172839506172839,0,0,0.06172839506172839,74.07407407407408,0)" xlink:href="#ab"/></g><g id="u"><use transform="matrix(0.049382716049382706,0,0,0.049382716049382706,0,0)" xlink:href="#B"/><use transform="matrix(0.049382716049382706,0,0,0.049382716049382706,9.87654320987654,0)" xlink:href="#B"/><use transform="matrix(0.049382716049382706,0,0,0.049382716049382706,19.75308641975308,0)" xlink:href="#ab"/></g><g id="v"><use transform="matrix(0.06172839506172839,0,0,0.06172839506172839,0,0)" xlink:href="#aa"/><use transform="matrix(0.06172839506172839,0,0,0.06172839506172839,12.345679012345679,0)" xlink:href="#A"/><use transform="matrix(0.06172839506172839,0,0,0.06172839506172839,24.691358024691358,0)" xlink:href="#ab"/></g><path d="M19-264h108v8L66-117H42l58-131H19v-16" id="ad"/><g id="w"><use transform="matrix(0.06172839506172839,0,0,0.06172839506172839,0,0)" xlink:href="#B"/><use transform="matrix(0.06172839506172839,0,0,0.06172839506172839,12.345679012345679,0)" xlink:href="#G"/><use transform="matrix(0.06172839506172839,0,0,0.06172839506172839,19.691358024691358,0)" xlink:href="#ad"/></g><g id="x"><use transform="matrix(0.06172839506172839,0,0,0.06172839506172839,0,0)" xlink:href="#B"/><use transform="matrix(0.06172839506172839,0,0,0.06172839506172839,12.345679012345679,0)" xlink:href="#H"/></g><path d="M84-243l-54 74h54v-74zm-4-21h29v95h24v19h-24v33H84v-33H11v-21" id="ae"/><g id="y"><use transform="matrix(0.06172839506172839,0,0,0.06172839506172839,0,0)" xlink:href="#B"/><use transform="matrix(0.06172839506172839,0,0,0.06172839506172839,12.345679012345679,0)" xlink:href="#ae"/></g></defs></g></svg>