<svg xmlns="http://www.w3.org/2000/svg" xmlns:xlink="http://www.w3.org/1999/xlink" xmlns:lucid="lucid" width="713.5" height="320"><g transform="translate(-387 -460)" lucid:page-tab-id="May8j-6D1y1t"><path d="M520 500h20v24h-20z" stroke="#000" fill="#fe7070"/><use xlink:href="#a" transform="matrix(1,0,0,1,525,505) translate(0.061728395061730446 14.222222222222218)"/><path d="M500 500h20v24h-20z" stroke="#000" fill="#fe7070"/><use xlink:href="#a" transform="matrix(1,0,0,1,505,505) translate(0.061728395061730446 14.222222222222218)"/><path d="M480 500h20v24h-20z" stroke="#000" fill="#fe7070"/><use xlink:href="#a" transform="matrix(1,0,0,1,485,505) translate(0.061728395061730446 14.222222222222218)"/><path d="M460 500h20v24h-20z" stroke="#000" fill="#fe7070"/><use xlink:href="#a" transform="matrix(1,0,0,1,465,505) translate(0.061728395061730446 14.222222222222218)"/><path d="M520 524h20v24h-20z" stroke="#000" fill="#ff80df"/><use xlink:href="#a" transform="matrix(1,0,0,1,525,529) translate(0.061728395061730446 14.222222222222218)"/><path d="M500 524h20v24h-20z" stroke="#000" fill="#ff80df"/><use xlink:href="#a" transform="matrix(1,0,0,1,505,529) translate(0.061728395061730446 14.222222222222218)"/><path d="M480 524h20v24h-20z" stroke="#000" fill="#ff80df"/><use xlink:href="#a" transform="matrix(1,0,0,1,485,529) translate(0.061728395061730446 14.222222222222218)"/><path d="M460 524h20v24h-20z" stroke="#000" fill="#ff80df"/><use xlink:href="#a" transform="matrix(1,0,0,1,465,529) translate(0.061728395061730446 14.222222222222218)"/><path d="M520 548h20v24h-20z" stroke="#000" fill="#ffe342"/><use xlink:href="#a" transform="matrix(1,0,0,1,525,553) translate(0.061728395061730446 14.222222222222218)"/><path d="M500 548h20v24h-20z" stroke="#000" fill="#ffe342"/><use xlink:href="#a" transform="matrix(1,0,0,1,505,553) translate(0.061728395061730446 14.222222222222218)"/><path d="M480 548h20v24h-20z" stroke="#000" fill="#ffe342"/><use xlink:href="#a" transform="matrix(1,0,0,1,485,553) translate(0.061728395061730446 14.222222222222218)"/><path d="M460 548h20v24h-20z" stroke="#000" fill="#ffe342"/><use xlink:href="#a" transform="matrix(1,0,0,1,465,553) translate(0.061728395061730446 14.222222222222218)"/><path d="M520 620h20v24h-20z" stroke="#000" fill="#00c2a8"/><use xlink:href="#a" transform="matrix(1,0,0,1,525,625) translate(0.061728395061730446 14.222222222222218)"/><path d="M500 620h20v24h-20z" stroke="#000" fill="#00c2a8"/><use xlink:href="#a" transform="matrix(1,0,0,1,505,625) translate(0.061728395061730446 14.222222222222218)"/><path d="M480 620h20v24h-20z" stroke="#000" fill="#00c2a8"/><use xlink:href="#a" transform="matrix(1,0,0,1,485,625) translate(0.061728395061730446 14.222222222222218)"/><path d="M460 620h20v24h-20z" stroke="#000" fill="#00c2a8"/><use xlink:href="#a" transform="matrix(1,0,0,1,465,625) translate(0.061728395061730446 14.222222222222218)"/><path d="M520 644h20v24h-20z" stroke="#000" fill="#6db1ff"/><use xlink:href="#a" transform="matrix(1,0,0,1,525,649) translate(0.061728395061730446 14.222222222222218)"/><path d="M500 644h20v24h-20z" stroke="#000" fill="#6db1ff"/><use xlink:href="#a" transform="matrix(1,0,0,1,505,649) translate(0.061728395061730446 14.222222222222218)"/><path d="M480 644h20v24h-20z" stroke="#000" fill="#6db1ff"/><use xlink:href="#a" transform="matrix(1,0,0,1,485,649) translate(0.061728395061730446 14.222222222222218)"/><path d="M460 644h20v24h-20z" stroke="#000" fill="#6db1ff"/><use xlink:href="#a" transform="matrix(1,0,0,1,465,649) translate(0.061728395061730446 14.222222222222218)"/><path d="M418.5 506a6 6 0 0 1 6-6h8a6 6 0 0 1 6 6v12a6 6 0 0 1-6 6h-8a6 6 0 0 1-6-6z" stroke="#000" stroke-opacity="0" fill="#fff" fill-opacity="0"/><use xlink:href="#b" transform="matrix(1,0,0,1,423.5,505) translate(-4.555555555555552 15.999999999999995)"/><path d="M418.5 530a6 6 0 0 1 6-6h8a6 6 0 0 1 6 6v12a6 6 0 0 1-6 6h-8a6 6 0 0 1-6-6z" stroke="#000" stroke-opacity="0" fill="#fff" fill-opacity="0"/><use xlink:href="#c" transform="matrix(1,0,0,1,423.5,529) translate(-4.555555555555552 15.999999999999995)"/><path d="M418.5 554a6 6 0 0 1 6-6h8a6 6 0 0 1 6 6v12a6 6 0 0 1-6 6h-8a6 6 0 0 1-6-6z" stroke="#000" stroke-opacity="0" fill="#fff" fill-opacity="0"/><use xlink:href="#d" transform="matrix(1,0,0,1,423.5,553) translate(-4.555555555555552 15.999999999999995)"/><path d="M418.5 626a6 6 0 0 1 6-6h8a6 6 0 0 1 6 6v12a6 6 0 0 1-6 6h-8a6 6 0 0 1-6-6z" stroke="#000" stroke-opacity="0" fill="#fff" fill-opacity="0"/><use xlink:href="#e" transform="matrix(1,0,0,1,423.5,625) translate(-7.861111111111105 15.999999999999995)"/><path d="M418.5 650a6 6 0 0 1 6-6h8a6 6 0 0 1 6 6v12a6 6 0 0 1-6 6h-8a6 6 0 0 1-6-6z" stroke="#000" stroke-opacity="0" fill="#fff" fill-opacity="0"/><use xlink:href="#f" transform="matrix(1,0,0,1,423.5,649) translate(-7.861111111111105 15.999999999999995)"/><path d="M460 578a6 6 0 0 1 6-6h68a6 6 0 0 1 6 6v36a6 6 0 0 1-6 6h-68a6 6 0 0 1-6-6z" stroke="#000" stroke-opacity="0" fill="#fff" fill-opacity="0"/><use xlink:href="#g" transform="matrix(1,0,0,1,465,577) translate(32.53086419753087 14.222222222222218)"/><use xlink:href="#g" transform="matrix(1,0,0,1,465,577) translate(32.53086419753087 18.488888888888884)"/><use xlink:href="#g" transform="matrix(1,0,0,1,465,577) translate(32.53086419753087 22.75555555555555)"/><use xlink:href="#h" transform="matrix(1,0,0,1,465,577) translate(35 27.022222222222215)"/><path d="M1080 700h20v24h-20z" stroke="#000" fill="#fe7070"/><use xlink:href="#a" transform="matrix(1,0,0,1,1085,705) translate(0.061728395061730446 14.222222222222218)"/><path d="M1060 700h20v24h-20z" stroke="#000" fill="#fe7070"/><use xlink:href="#a" transform="matrix(1,0,0,1,1065,705) translate(0.061728395061730446 14.222222222222218)"/><path d="M1040 700h20v24h-20z" stroke="#000" fill="#fe7070"/><use xlink:href="#a" transform="matrix(1,0,0,1,1045,705) translate(0.061728395061730446 14.222222222222218)"/><path d="M1020 700h20v24h-20z" stroke="#000" fill="#fe7070"/><use xlink:href="#a" transform="matrix(1,0,0,1,1025,705) translate(0.061728395061730446 14.222222222222218)"/><path d="M1000 700h20v24h-20z" stroke="#000" fill="#ff80df"/><use xlink:href="#a" transform="matrix(1,0,0,1,1005,705) translate(0.061728395061730446 14.222222222222218)"/><path d="M980 700h20v24h-20z" stroke="#000" fill="#ff80df"/><use xlink:href="#a" transform="matrix(1,0,0,1,985,705) translate(0.061728395061730446 14.222222222222218)"/><path d="M960 700h20v24h-20z" stroke="#000" fill="#ff80df"/><use xlink:href="#a" transform="matrix(1,0,0,1,965,705) translate(0.061728395061730446 14.222222222222218)"/><path d="M940 700h20v24h-20z" stroke="#000" fill="#ff80df"/><use xlink:href="#a" transform="matrix(1,0,0,1,945,705) translate(0.061728395061730446 14.222222222222218)"/><path d="M820 700h20v24h-20z" stroke="#000" fill="#00c2a8"/><use xlink:href="#a" transform="matrix(1,0,0,1,825,705) translate(0.061728395061730446 14.222222222222218)"/><path d="M800 700h20v24h-20z" stroke="#000" fill="#00c2a8"/><use xlink:href="#a" transform="matrix(1,0,0,1,805,705) translate(0.061728395061730446 14.222222222222218)"/><path d="M780 700h20v24h-20z" stroke="#000" fill="#00c2a8"/><use xlink:href="#a" transform="matrix(1,0,0,1,785,705) translate(0.061728395061730446 14.222222222222218)"/><path d="M760 700h20v24h-20z" stroke="#000" fill="#00c2a8"/><use xlink:href="#a" transform="matrix(1,0,0,1,765,705) translate(0.061728395061730446 14.222222222222218)"/><path d="M840 700h20v24h-20z" stroke="#000" fill="#fff"/><use xlink:href="#i" transform="matrix(1,0,0,1,845,705) translate(-2.4074074074074048 14.222222222222218)"/><path d="M920 700h20v24h-20z" stroke="#000" fill="#ffe342"/><use xlink:href="#a" transform="matrix(1,0,0,1,925,705) translate(0.061728395061730446 14.222222222222218)"/><path d="M900 700h20v24h-20z" stroke="#000" fill="#ffe342"/><use xlink:href="#a" transform="matrix(1,0,0,1,905,705) translate(0.061728395061730446 14.222222222222218)"/><path d="M880 700h20v24h-20z" stroke="#000" fill="#ffe342"/><use xlink:href="#a" transform="matrix(1,0,0,1,885,705) translate(0.061728395061730446 14.222222222222218)"/><path d="M860 700h20v24h-20z" stroke="#000" fill="#ffe342"/><use xlink:href="#a" transform="matrix(1,0,0,1,865,705) translate(0.061728395061730446 14.222222222222218)"/><path d="M740 700h20v24h-20z" stroke="#000" fill="#6db1ff"/><use xlink:href="#a" transform="matrix(1,0,0,1,745,705) translate(0.061728395061730446 14.222222222222218)"/><path d="M720 700h20v24h-20z" stroke="#000" fill="#6db1ff"/><use xlink:href="#a" transform="matrix(1,0,0,1,725,705) translate(0.061728395061730446 14.222222222222218)"/><path d="M700 700h20v24h-20z" stroke="#000" fill="#6db1ff"/><use xlink:href="#a" transform="matrix(1,0,0,1,705,705) translate(0.061728395061730446 14.222222222222218)"/><path d="M680 700h20v24h-20z" stroke="#000" fill="#6db1ff"/><use xlink:href="#a" transform="matrix(1,0,0,1,685,705) translate(0.061728395061730446 14.222222222222218)"/><path d="M560 700h100v24H560z" stroke="#000" fill="#979ea8"/><use xlink:href="#j" transform="matrix(1,0,0,1,565,705) translate(8.456790123456805 14.222222222222218)"/><use xlink:href="#k" transform="matrix(1,0,0,1,565,705) translate(23.271604938271615 14.222222222222218)"/><path d="M541 512h513a6 6 0 0 1 6 6v165.12" stroke="#000" fill="none"/><path d="M541 512.48h-.5v-.96h.5z" stroke="#000" stroke-width=".05"/><path d="M1060 697.88l-4.63-14.26h9.27z" stroke="#000"/><path d="M541 536h433a6 6 0 0 1 6 6v141.12" stroke="#000" fill="none"/><path d="M541 536.48h-.5v-.96h.5z" stroke="#000" stroke-width=".05"/><path d="M980 697.88l-4.63-14.26h9.26z" stroke="#000"/><path d="M541 560h353a6 6 0 0 1 6 6v117.12" stroke="#000" fill="none"/><path d="M541 560.48h-.5v-.96h.5z" stroke="#000" stroke-width=".05"/><path d="M900 697.88l-4.63-14.26h9.26z" stroke="#000"/><path d="M541 632h253a6 6 0 0 1 6 6v45.12" stroke="#000" fill="none"/><path d="M541 632.48h-.5v-.96h.5z" stroke="#000" stroke-width=".05"/><path d="M800 697.88l-4.63-14.26h9.26z" stroke="#000"/><path d="M541 656h172.88a6 6 0 0 1 6 6v21.12" stroke="#000" fill="none"/><path d="M541 656.48h-.5v-.96h.5z" stroke="#000" stroke-width=".05"/><path d="M719.88 697.88l-4.64-14.26h9.27z" stroke="#000"/><path d="M412.5 466a6 6 0 0 1 6-6h23a6 6 0 0 1 6 6v28a6 6 0 0 1-6 6h-23a6 6 0 0 1-6-6z" stroke="#000" stroke-opacity="0" fill="#fff" fill-opacity="0"/><use xlink:href="#l" transform="matrix(1,0,0,1,417.5,465) translate(2.154320987654323 17.97222222222222)"/><path d="M480 706a6 6 0 0 1 6-6h68a6 6 0 0 1 6 6v12a6 6 0 0 1-6 6h-68a6 6 0 0 1-6-6z" stroke="#000" stroke-opacity="0" fill="#fff" fill-opacity="0"/><use xlink:href="#m" transform="matrix(1,0,0,1,485,705) translate(10.827160493827165 14.222222222222221)"/><use xlink:href="#n" transform="matrix(1,0,0,1,485,705) translate(35.51851851851852 14.222222222222221)"/><path d="M1020 730a6 6 0 0 1 6-6h8a6 6 0 0 1 6 6v8a6 6 0 0 1-6 6h-8a6 6 0 0 1-6-6z" stroke="#000" stroke-opacity="0" fill="#fff" fill-opacity="0"/><use xlink:href="#o" transform="matrix(1,0,0,1,1025,729) translate(0.6790123456790136 12.444444444444441)"/><path d="M940 730a6 6 0 0 1 6-6h8a6 6 0 0 1 6 6v8a6 6 0 0 1-6 6h-8a6 6 0 0 1-6-6z" stroke="#000" stroke-opacity="0" fill="#fff" fill-opacity="0"/><use xlink:href="#p" transform="matrix(1,0,0,1,945,729) translate(0.6790123456790136 12.444444444444441)"/><path d="M860 730a6 6 0 0 1 6-6h8a6 6 0 0 1 6 6v8a6 6 0 0 1-6 6h-8a6 6 0 0 1-6-6z" stroke="#000" stroke-opacity="0" fill="#fff" fill-opacity="0"/><use xlink:href="#q" transform="matrix(1,0,0,1,865,729) translate(-3.641975308641973 12.444444444444441)"/><path d="M760 730a6 6 0 0 1 6-6h8a6 6 0 0 1 6 6v8a6 6 0 0 1-6 6h-8a6 6 0 0 1-6-6z" stroke="#000" stroke-opacity="0" fill="#fff" fill-opacity="0"/><use xlink:href="#r" transform="matrix(1,0,0,1,765.0000000000001,729) translate(-3.641975308641973 12.444444444444441)"/><path d="M680 730a6 6 0 0 1 6-6h8a6 6 0 0 1 6 6v8a6 6 0 0 1-6 6h-8a6 6 0 0 1-6-6z" stroke="#000" stroke-opacity="0" fill="#fff" fill-opacity="0"/><use xlink:href="#s" transform="matrix(1,0,0,1,685,729) translate(-3.641975308641973 12.444444444444441)"/><path d="M480 466a6 6 0 0 1 6-6h23a6 6 0 0 1 6 6v28a6 6 0 0 1-6 6h-23a6 6 0 0 1-6-6z" stroke="#000" stroke-opacity="0" fill="#fff" fill-opacity="0"/><use xlink:href="#t" transform="matrix(1,0,0,1,485,465) translate(1.635802469135804 17.97222222222222)"/><path d="M660 700h20v24h-20z" stroke="#000" fill="#fff"/><use xlink:href="#a" transform="matrix(1,0,0,1,665,705) translate(0.061728395061730446 14.222222222222218)"/><path d="M1080 730a6 6 0 0 1 6-6h8a6 6 0 0 1 6 6v8a6 6 0 0 1-6 6h-8a6 6 0 0 1-6-6z" stroke="#000" stroke-opacity="0" fill="#fff" fill-opacity="0"/><use xlink:href="#u" transform="matrix(1,0,0,1,1085,729) translate(0.6790123456790136 12.444444444444441)"/><path d="M580 750a6 6 0 0 1 6-6h28a6 6 0 0 1 6 6v24a6 6 0 0 1-6 6h-28a6 6 0 0 1-6-6z" stroke="#000" stroke-opacity="0" fill="#fff" fill-opacity="0"/><use xlink:href="#v" transform="matrix(1,0,0,1,585,749) translate(-4.854938271604933 12.444444444444441)"/><use xlink:href="#w" transform="matrix(1,0,0,1,585,749) translate(2.922839506172842 31.1111111111111)"/><path d="M670 740.88V754a6 6 0 0 1-6 6h-43.5" stroke="#000" fill="none"/><path d="M670 726.12l4.63 14.26h-9.26z" stroke="#000"/><path d="M620.5 760h-.5" stroke="#000" fill="none"/><path d="M387 578a6 6 0 0 1 6-6h68a6 6 0 0 1 6 6v36a6 6 0 0 1-6 6h-68a6 6 0 0 1-6-6z" stroke="#000" stroke-opacity="0" fill="#fff" fill-opacity="0"/><g><use xlink:href="#g" transform="matrix(1,0,0,1,392,577) translate(32.53086419753087 14.222222222222218)"/><use xlink:href="#g" transform="matrix(1,0,0,1,392,577) translate(32.53086419753087 18.488888888888884)"/><use xlink:href="#g" transform="matrix(1,0,0,1,392,577) translate(32.53086419753087 22.75555555555555)"/><use xlink:href="#h" transform="matrix(1,0,0,1,392,577) translate(35 27.022222222222215)"/></g><defs><path d="M101-251c68 0 85 55 85 127S166 4 100 4C33 4 14-52 14-124c0-73 17-127 87-127zm-1 229c47 0 54-49 54-102s-4-102-53-102c-51 0-55 48-55 102 0 53 5 102 54 102" id="x"/><use transform="matrix(0.0493827160493827,0,0,0.0493827160493827,0,0)" xlink:href="#x" id="a"/><path d="M101-251c82-7 93 87 43 132L82-64C71-53 59-42 53-27h129V0H18c2-99 128-94 128-182 0-28-16-43-45-43s-46 15-49 41l-32-3c6-41 34-60 81-64" id="y"/><path d="M84-243l-54 74h54v-74zm-4-21h29v95h24v19h-24v33H84v-33H11v-21" id="z"/><g id="b"><use transform="matrix(0.05555555555555554,0,0,0.05555555555555554,0,0)" xlink:href="#y"/><use transform="matrix(0.05555555555555554,0,0,0.05555555555555554,11.111111111111107,0)" xlink:href="#z"/></g><path d="M104-165c0-36-50-38-79-26v-73h90v16H46v36c40-10 81 8 81 47 0 51-64 58-109 44v-20c28 15 86 17 86-24" id="A"/><g id="c"><use transform="matrix(0.05555555555555554,0,0,0.05555555555555554,0,0)" xlink:href="#y"/><use transform="matrix(0.05555555555555554,0,0,0.05555555555555554,11.111111111111107,0)" xlink:href="#A"/></g><path d="M110-165c0-21-13-34-34-34-20 0-33 13-33 34s13 35 33 35 34-13 34-35zm-94-26c-2-58 52-91 106-70v18c-39-18-87 0-83 46 24-33 97-17 94 32-2 31-24 51-57 50-43 0-58-31-60-76" id="B"/><g id="d"><use transform="matrix(0.05555555555555554,0,0,0.05555555555555554,0,0)" xlink:href="#y"/><use transform="matrix(0.05555555555555554,0,0,0.05555555555555554,11.111111111111107,0)" xlink:href="#B"/></g><path d="M14-99v-19h37v-109l-35 25v-22c18-9 27-27 58-24v130h38v19H14" id="C"/><g id="e"><use transform="matrix(0.05555555555555554,0,0,0.05555555555555554,0,0)" xlink:href="#y"/><use transform="matrix(0.05555555555555554,0,0,0.05555555555555554,11.111111111111107,0)" xlink:href="#C"/><use transform="matrix(0.05555555555555554,0,0,0.05555555555555554,17.722222222222214,0)" xlink:href="#B"/></g><path d="M19-264h108v8L66-117H42l58-131H19v-16" id="D"/><g id="f"><use transform="matrix(0.05555555555555554,0,0,0.05555555555555554,0,0)" xlink:href="#y"/><use transform="matrix(0.05555555555555554,0,0,0.05555555555555554,11.111111111111107,0)" xlink:href="#C"/><use transform="matrix(0.05555555555555554,0,0,0.05555555555555554,17.722222222222214,0)" xlink:href="#D"/></g><path d="M33 0v-38h34V0H33" id="E"/><use transform="matrix(0.0493827160493827,0,0,0.0493827160493827,0,0)" xlink:href="#E" id="g"/><g id="i"><use transform="matrix(0.0493827160493827,0,0,0.0493827160493827,0,0)" xlink:href="#E"/><use transform="matrix(0.0493827160493827,0,0,0.0493827160493827,4.9382716049382696,0)" xlink:href="#E"/><use transform="matrix(0.0493827160493827,0,0,0.0493827160493827,9.876543209876539,0)" xlink:href="#E"/></g><path d="M64 0c3-98 48-159 88-221H18v-27h164v26C143-157 98-101 97 0H64" id="F"/><use transform="matrix(0.0493827160493827,0,0,0.0493827160493827,0,0)" xlink:href="#F" id="j"/><path d="M84 4C-5 8 30-112 23-190h32v120c0 31 7 50 39 49 72-2 45-101 50-169h31l1 190h-30c-1-10 1-25-2-33-11 22-28 36-60 37" id="G"/><path d="M117-194c89-4 53 116 60 194h-32v-121c0-31-8-49-39-48C34-167 62-67 57 0H25l-1-190h30c1 10-1 24 2 32 11-22 29-35 61-36" id="H"/><path d="M135-143c-3-34-86-38-87 0 15 53 115 12 119 90S17 21 10-45l28-5c4 36 97 45 98 0-10-56-113-15-118-90-4-57 82-63 122-42 12 7 21 19 24 35" id="I"/><path d="M100-194c63 0 86 42 84 106H49c0 40 14 67 53 68 26 1 43-12 49-29l28 8c-11 28-37 45-77 45C44 4 14-33 15-96c1-61 26-98 85-98zm52 81c6-60-76-77-97-28-3 7-6 17-6 28h103" id="J"/><path d="M85-194c31 0 48 13 60 33l-1-100h32l1 261h-30c-2-10 0-23-3-31C134-8 116 4 85 4 32 4 16-35 15-94c0-66 23-100 70-100zm9 24c-40 0-46 34-46 75 0 40 6 74 45 74 42 0 51-32 51-76 0-42-9-74-50-73" id="K"/><g id="k"><use transform="matrix(0.0493827160493827,0,0,0.0493827160493827,0,0)" xlink:href="#G"/><use transform="matrix(0.0493827160493827,0,0,0.0493827160493827,9.876543209876539,0)" xlink:href="#H"/><use transform="matrix(0.0493827160493827,0,0,0.0493827160493827,19.753086419753078,0)" xlink:href="#G"/><use transform="matrix(0.0493827160493827,0,0,0.0493827160493827,29.62962962962962,0)" xlink:href="#I"/><use transform="matrix(0.0493827160493827,0,0,0.0493827160493827,38.518518518518505,0)" xlink:href="#J"/><use transform="matrix(0.0493827160493827,0,0,0.0493827160493827,48.39506172839504,0)" xlink:href="#K"/></g><path d="M63-220v92h138v28H63V0H30v-248h175v28H63" id="L"/><path d="M30 0v-248h33v221h125V0H30" id="M"/><g id="l"><use transform="matrix(0.049382716049382706,0,0,0.049382716049382706,0,0)" xlink:href="#L"/><use transform="matrix(0.049382716049382706,0,0,0.049382716049382706,10.814814814814813,0)" xlink:href="#M"/></g><path d="M110-160c48 1 74 30 74 79 0 53-28 85-80 85-65 0-83-55-86-122-5-90 50-162 133-122 14 7 22 21 27 39l-31 6c-5-40-67-38-82-6-9 19-15 44-15 74 11-20 30-34 60-33zm-7 138c34 0 49-23 49-58s-16-56-50-56c-29 0-50 16-49 49 1 36 15 65 50 65" id="N"/><path d="M155-56V0h-30v-56H8v-25l114-167h33v167h35v25h-35zm-30-156c-27 46-58 90-88 131h88v-131" id="O"/><g id="m"><use transform="matrix(0.049382716049382706,0,0,0.049382716049382706,0,0)" xlink:href="#N"/><use transform="matrix(0.049382716049382706,0,0,0.049382716049382706,9.87654320987654,0)" xlink:href="#O"/></g><path d="M115-194c53 0 69 39 70 98 0 66-23 100-70 100C84 3 66-7 56-30L54 0H23l1-261h32v101c10-23 28-34 59-34zm-8 174c40 0 45-34 45-75 0-40-5-75-45-74-42 0-51 32-51 76 0 43 10 73 51 73" id="P"/><path d="M24-231v-30h32v30H24zM24 0v-190h32V0H24" id="Q"/><path d="M59-47c-2 24 18 29 38 22v24C64 9 27 4 27-40v-127H5v-23h24l9-43h21v43h35v23H59v120" id="R"/><path d="M33-154v-36h34v36H33zM33 0v-36h34V0H33" id="S"/><g id="n"><use transform="matrix(0.049382716049382706,0,0,0.049382716049382706,0,0)" xlink:href="#P"/><use transform="matrix(0.049382716049382706,0,0,0.049382716049382706,9.87654320987654,0)" xlink:href="#Q"/><use transform="matrix(0.049382716049382706,0,0,0.049382716049382706,13.777777777777775,0)" xlink:href="#R"/><use transform="matrix(0.049382716049382706,0,0,0.049382716049382706,18.716049382716044,0)" xlink:href="#S"/></g><path fill="#3a414a" d="M155-56V0h-30v-56H8v-25l114-167h33v167h35v25h-35zm-30-156c-27 46-58 90-88 131h88v-131" id="T"/><use transform="matrix(0.04320987654320986,0,0,0.04320987654320986,0,0)" xlink:href="#T" id="o"/><path fill="#3a414a" d="M134-131c28 9 52 24 51 62-1 50-34 73-85 73S17-19 16-69c0-36 21-54 49-61-75-25-45-126 34-121 46 3 78 18 79 63 0 33-17 51-44 57zm-34-11c31 1 46-15 46-44 0-28-17-43-47-42-29 0-46 13-45 42 1 28 16 44 46 44zm1 122c35 0 51-18 51-52 0-30-18-46-53-46-33 0-51 17-51 47 0 34 19 51 53 51" id="U"/><use transform="matrix(0.04320987654320986,0,0,0.04320987654320986,0,0)" xlink:href="#U" id="p"/><path fill="#3a414a" d="M27 0v-27h64v-190l-56 39v-29l58-41h29v221h61V0H27" id="V"/><path fill="#3a414a" d="M101-251c82-7 93 87 43 132L82-64C71-53 59-42 53-27h129V0H18c2-99 128-94 128-182 0-28-16-43-45-43s-46 15-49 41l-32-3c6-41 34-60 81-64" id="W"/><g id="q"><use transform="matrix(0.04320987654320986,0,0,0.04320987654320986,0,0)" xlink:href="#V"/><use transform="matrix(0.04320987654320986,0,0,0.04320987654320986,8.641975308641973,0)" xlink:href="#W"/></g><path fill="#3a414a" d="M54-142c48-35 137-8 131 61C196 18 31 33 14-55l32-4c7 23 22 37 52 37 35-1 51-22 54-58 4-55-73-65-99-34H22l8-134h141v27H59" id="X"/><g id="r"><use transform="matrix(0.04320987654320986,0,0,0.04320987654320986,0,0)" xlink:href="#X"/><use transform="matrix(0.04320987654320986,0,0,0.04320987654320986,8.641975308641973,0)" xlink:href="#W"/></g><path fill="#3a414a" d="M110-160c48 1 74 30 74 79 0 53-28 85-80 85-65 0-83-55-86-122-5-90 50-162 133-122 14 7 22 21 27 39l-31 6c-5-40-67-38-82-6-9 19-15 44-15 74 11-20 30-34 60-33zm-7 138c34 0 49-23 49-58s-16-56-50-56c-29 0-50 16-49 49 1 36 15 65 50 65" id="Y"/><g id="s"><use transform="matrix(0.04320987654320986,0,0,0.04320987654320986,0,0)" xlink:href="#X"/><use transform="matrix(0.04320987654320986,0,0,0.04320987654320986,8.641975308641973,0)" xlink:href="#Y"/></g><path d="M185-189c-5-48-123-54-124 2 14 75 158 14 163 119 3 78-121 87-175 55-17-10-28-26-33-46l33-7c5 56 141 63 141-1 0-78-155-14-162-118-5-82 145-84 179-34 5 7 8 16 11 25" id="Z"/><g id="t"><use transform="matrix(0.049382716049382706,0,0,0.049382716049382706,0,0)" xlink:href="#Z"/><use transform="matrix(0.049382716049382706,0,0,0.049382716049382706,11.85185185185185,0)" xlink:href="#M"/></g><use transform="matrix(0.04320987654320986,0,0,0.04320987654320986,0,0)" xlink:href="#V" id="u"/><path fill="#3a414a" d="M30 0v-248h33v221h125V0H30" id="aa"/><path fill="#3a414a" d="M141-36C126-15 110 5 73 4 37 3 15-17 15-53c-1-64 63-63 125-63 3-35-9-54-41-54-24 1-41 7-42 31l-33-3c5-37 33-52 76-52 45 0 72 20 72 64v82c-1 20 7 32 28 27v20c-31 9-61-2-59-35zM48-53c0 20 12 33 32 33 41-3 63-29 60-74-43 2-92-5-92 41" id="ab"/><path fill="#3a414a" d="M114-163C36-179 61-72 57 0H25l-1-190h30c1 12-1 29 2 39 6-27 23-49 58-41v29" id="ac"/><path fill="#3a414a" d="M177-190C167-65 218 103 67 71c-23-6-38-20-44-43l32-5c15 47 100 32 89-28v-30C133-14 115 1 83 1 29 1 15-40 15-95c0-56 16-97 71-98 29-1 48 16 59 35 1-10 0-23 2-32h30zM94-22c36 0 50-32 50-73 0-42-14-75-50-75-39 0-46 34-46 75s6 73 46 73" id="ad"/><path fill="#3a414a" d="M100-194c63 0 86 42 84 106H49c0 40 14 67 53 68 26 1 43-12 49-29l28 8c-11 28-37 45-77 45C44 4 14-33 15-96c1-61 26-98 85-98zm52 81c6-60-76-77-97-28-3 7-6 17-6 28h103" id="ae"/><g id="v"><use transform="matrix(0.04320987654320986,0,0,0.04320987654320986,0,0)" xlink:href="#aa"/><use transform="matrix(0.04320987654320986,0,0,0.04320987654320986,8.641975308641973,0)" xlink:href="#ab"/><use transform="matrix(0.04320987654320986,0,0,0.04320987654320986,17.283950617283946,0)" xlink:href="#ac"/><use transform="matrix(0.04320987654320986,0,0,0.04320987654320986,22.425925925925924,0)" xlink:href="#ad"/><use transform="matrix(0.04320987654320986,0,0,0.04320987654320986,31.067901234567888,0)" xlink:href="#ae"/></g><path fill="#3a414a" d="M24-231v-30h32v30H24zM24 0v-190h32V0H24" id="af"/><path fill="#3a414a" d="M135-143c-3-34-86-38-87 0 15 53 115 12 119 90S17 21 10-45l28-5c4 36 97 45 98 0-10-56-113-15-118-90-4-57 82-63 122-42 12 7 21 19 24 35" id="ag"/><path fill="#3a414a" d="M59-47c-2 24 18 29 38 22v24C64 9 27 4 27-40v-127H5v-23h24l9-43h21v43h35v23H59v120" id="ah"/><g id="w"><use transform="matrix(0.04320987654320986,0,0,0.04320987654320986,0,0)" xlink:href="#aa"/><use transform="matrix(0.04320987654320986,0,0,0.04320987654320986,8.641975308641973,0)" xlink:href="#af"/><use transform="matrix(0.04320987654320986,0,0,0.04320987654320986,12.055555555555552,0)" xlink:href="#ag"/><use transform="matrix(0.04320987654320986,0,0,0.04320987654320986,19.83333333333333,0)" xlink:href="#ah"/></g></defs></g></svg>