<svg xmlns="http://www.w3.org/2000/svg" xmlns:xlink="http://www.w3.org/1999/xlink" xmlns:lucid="lucid" width="458" height="444"><g transform="translate(-335 -138)" lucid:page-tab-id="H1X-22CXkeZP"><path d="M440 200h240v320H440z" stroke="#000" fill="#ced4db"/><path d="M440 200h240v80H440z" stroke="#000" fill="#65938c" fill-opacity=".83"/><use xlink:href="#a" transform="matrix(1,0,0,1,445,204.99999999999972) translate(95.27777777777777 39.65277777777778)"/><path d="M440 280h120v80H440z" stroke="#000" fill="#65938c" fill-opacity=".83"/><use xlink:href="#b" transform="matrix(1,0,0,1,445,284.9999999999999) translate(34.01234567901234 39.65277777777778)"/><path d="M560 280h120v80H560z" stroke="#000" fill="#65938c" fill-opacity=".83"/><use xlink:href="#c" transform="matrix(1,0,0,1,565,284.9999999999997) translate(33.925925925925924 39.65277777777778)"/><path d="M400.48 503.62h-.96v-122.3h.96zm0-164.95h-.96v-122.3h.96z" stroke="#000" stroke-width=".05"/><path d="M404.63 215.88h-9.26l4.63-14.26z"/><path d="M405.3 216.36h-10.6l5.3-16.28zm-9.28-.95h7.96L400 203.16z" stroke="#000" stroke-width=".05"/><path d="M400 518.38l-4.63-14.26h9.26z"/><path d="M400 519.92l-5.3-16.28h10.6zm-3.98-15.33l3.98 12.25 3.98-12.26z" stroke="#000" stroke-width=".05"/><use xlink:href="#d" transform="matrix(1,0,0,1,376.8395061728395,338.6666666666667) translate(13.288950617283952 14.222222222222223)"/><use xlink:href="#e" transform="matrix(1,0,0,1,376.8395061728395,338.6666666666667) translate(0.004999999999999005 35.55555555555556)"/><path d="M440 440h240v80H440z" stroke="#000" fill="#6f7681"/><use xlink:href="#f" transform="matrix(1,0,0,1,445,444.9999999999999) translate(47.191358024691354 39.65277777777778)"/><path d="M720.48 263.62h-.96v-12.95h.96zm0-34.3h-.96V216.4h.96z" stroke="#000" stroke-width=".05"/><path d="M724.63 215.88h-9.26l4.63-14.26z"/><path d="M725.3 216.36h-10.6l5.3-16.28zm-9.28-.95h7.96L720 203.16z" stroke="#000" stroke-width=".05"/><path d="M720 278.38l-4.63-14.26h9.26z"/><path d="M720 279.92l-5.3-16.28h10.6zm-3.98-15.33l3.98 12.25 3.98-12.26z" stroke="#000" stroke-width=".05"/><use xlink:href="#g" transform="matrix(1,0,0,1,689.4320987654321,229.33333333333346) translate(0.004999999999999005 14.222222222222223)"/><use xlink:href="#h" transform="matrix(1,0,0,1,689.4320987654321,229.33333333333346) translate(14.819814814814816 14.222222222222223)"/><path d="M440 360h240v80H440z" stroke="#000" fill="#6f7681"/><use xlink:href="#c" transform="matrix(1,0,0,1,445,365) translate(93.42592592592592 39.65277777777778)"/><g class="lucid-layer" lucid:layer-id="h7X-1lVPPItX" display="block" stroke="#000" fill="none"><path d="M440.3 200.4l55.88 79.2M440.3 200.42l-.3-.42M496.18 279.58l.3.42M440.3 220.4l41.76 59.2M440.3 220.42l-.3-.42M482.06 279.58l.3.42M440.3 240.4l27.65 39.2M440.3 240.42l-.3-.42M467.94 279.58l.3.42M440.3 260.4l13.53 19.2M440.3 260.42l-.3-.42M453.82 279.58l.3.42M454.4 200.4l55.9 79.2M454.4 200.42l-.28-.42M510.3 279.58l.3.42M468.52 200.4l55.9 79.2M468.53 200.42l-.3-.42M524.4 279.58l.3.42M482.64 200.4l55.9 79.2M482.65 200.42l-.3-.42M538.53 279.58l.3.42M496.76 200.4l55.9 79.2M496.77 200.42l-.3-.42M552.64 279.58l.3.42M510.88 200.4l55.9 79.2M510.88 200.42l-.3-.42M566.76 279.58l.3.42M525 200.4l55.9 79.2M525 200.42l-.3-.42M580.88 279.58l.3.42M539.1 200.4l55.9 79.2M539.12 200.42l-.3-.42M595 279.58l.3.42M553.23 200.4l55.9 79.2M553.24 200.42l-.3-.42M609.12 279.58l.3.42M567.35 200.4l55.9 79.2M567.36 200.42l-.3-.42M623.23 279.58l.3.42M581.47 200.4l55.9 79.2M581.47 200.42l-.3-.42M637.35 279.58l.3.42M595.58 200.4l55.9 79.2M595.6 200.42l-.3-.42M651.47 279.58l.3.42M581.47 200.4l55.9 79.2M581.47 200.42l-.3-.42M637.35 279.58l.3.42M595.58 200.4l55.9 79.2M595.6 200.42l-.3-.42M651.47 279.58l.3.42M609.7 200.4l55.9 79.2M609.7 200.42l-.3-.42M665.6 279.58l.28.42M623.82 200.4l55.9 79.2M623.83 200.42l-.3-.42M679.7 279.58l.3.42M637.93 200.4l41.78 59.2M637.94 200.42l-.3-.42M679.7 259.58l.3.42M652.05 200.4l27.66 39.2M652.06 200.42l-.3-.42M679.7 239.58l.3.42M666.17 200.4l13.54 19.2M666.18 200.42l-.3-.42M679.7 219.58l.3.42M440.3 280.4l55.88 79.2M440.3 280.42l-.3-.42M496.18 359.58l.3.42M440.3 300.4l41.76 59.2M440.3 300.42l-.3-.42M482.06 359.58l.3.42M440.3 320.4l27.65 39.2M440.3 320.42l-.3-.42M467.94 359.58l.3.42M440.3 340.4l13.53 19.2M440.3 340.42l-.3-.42M453.82 359.58l.3.42M454.4 280.4l55.9 79.2M454.4 280.42l-.28-.42M510.3 359.58l.3.42M468.52 280.4l55.9 79.2M468.53 280.42l-.3-.42M524.4 359.58l.3.42M482.64 280.4l55.9 79.2M482.65 280.42l-.3-.42M538.53 359.58l.3.42M496.76 280.4l55.9 79.2M496.77 280.42l-.3-.42M552.64 359.58l.3.42M510.88 280.4l55.9 79.2M510.88 280.42l-.3-.42M566.76 359.58l.3.42M525 280.4l55.9 79.2M525 280.42l-.3-.42M580.88 359.58l.3.42M539.1 280.4l55.9 79.2M539.12 280.42l-.3-.42M595 359.58l.3.42M553.23 280.4l55.9 79.2M553.24 280.42l-.3-.42M609.12 359.58l.3.42M567.35 280.4l55.9 79.2M567.36 280.42l-.3-.42M623.23 359.58l.3.42M581.47 280.4l55.9 79.2M581.47 280.42l-.3-.42M637.35 359.58l.3.42M595.58 280.4l55.9 79.2M595.6 280.42l-.3-.42M651.47 359.58l.3.42M581.47 280.4l55.9 79.2M581.47 280.42l-.3-.42M637.35 359.58l.3.42M595.58 280.4l55.9 79.2M595.6 280.42l-.3-.42M651.47 359.58l.3.42M609.7 280.4l55.9 79.2M609.7 280.42l-.3-.42M665.6 359.58l.28.42M623.82 280.4l55.9 79.2M623.83 280.42l-.3-.42M679.7 359.58l.3.42M637.93 280.4l41.78 59.2M637.94 280.42l-.3-.42M679.7 339.58l.3.42M652.05 280.4l27.66 39.2M652.06 280.42l-.3-.42M679.7 319.58l.3.42M666.17 280.4l13.54 19.2M666.18 280.42l-.3-.42M679.7 299.58l.3.42"/></g><g class="lucid-layer" lucid:layer-id="chY-tdfNAXgC" display="block" stroke="#e81313" stroke-width="3" fill="none"><path d="M441.42 440.47l237.16 79.06M441.46 440.5L440 440M678.54 519.5l1.46.5M441.42 519.53l237.16-79.06M441.46 519.5l-1.46.5M678.54 440.5l1.46-.5"/></g><g class="lucid-layer" lucid:layer-id="xzea.ioMI2BB" display="block" stroke="#e81313" stroke-width="3" fill="none"><path d="M441.42 360.47l237.16 79.06M441.46 360.5L440 360M678.54 439.5l1.46.5M441.42 439.53l237.16-79.06M441.46 439.5l-1.46.5M678.54 360.5l1.46-.5"/></g><defs><path fill="#3a414a" d="M135-143c-3-34-86-38-87 0 15 53 115 12 119 90S17 21 10-45l28-5c4 36 97 45 98 0-10-56-113-15-118-90-4-57 82-63 122-42 12 7 21 19 24 35" id="i"/><path fill="#3a414a" d="M24-231v-30h32v30H24zM24 0v-190h32V0H24" id="j"/><path fill="#3a414a" d="M9 0v-24l116-142H16v-24h144v24L44-24h123V0H9" id="k"/><path fill="#3a414a" d="M100-194c63 0 86 42 84 106H49c0 40 14 67 53 68 26 1 43-12 49-29l28 8c-11 28-37 45-77 45C44 4 14-33 15-96c1-61 26-98 85-98zm52 81c6-60-76-77-97-28-3 7-6 17-6 28h103" id="l"/><g id="a"><use transform="matrix(0.06172839506172839,0,0,0.06172839506172839,0,0)" xlink:href="#i"/><use transform="matrix(0.06172839506172839,0,0,0.06172839506172839,11.11111111111111,0)" xlink:href="#j"/><use transform="matrix(0.06172839506172839,0,0,0.06172839506172839,15.987654320987653,0)" xlink:href="#k"/><use transform="matrix(0.06172839506172839,0,0,0.06172839506172839,27.098765432098766,0)" xlink:href="#l"/></g><path fill="#3a414a" d="M117-194c89-4 53 116 60 194h-32v-121c0-31-8-49-39-48C34-167 62-67 57 0H25l-1-190h30c1 10-1 24 2 32 11-22 29-35 61-36" id="m"/><path fill="#3a414a" d="M141 0L90-78 38 0H4l68-98-65-92h35l48 74 47-74h35l-64 92 68 98h-35" id="n"/><path fill="#3a414a" d="M59-47c-2 24 18 29 38 22v24C64 9 27 4 27-40v-127H5v-23h24l9-43h21v43h35v23H59v120" id="o"/><g id="b"><use transform="matrix(0.06172839506172839,0,0,0.06172839506172839,0,0)" xlink:href="#m"/><use transform="matrix(0.06172839506172839,0,0,0.06172839506172839,12.345679012345679,0)" xlink:href="#l"/><use transform="matrix(0.06172839506172839,0,0,0.06172839506172839,24.691358024691358,0)" xlink:href="#n"/><use transform="matrix(0.06172839506172839,0,0,0.06172839506172839,35.80246913580247,0)" xlink:href="#o"/></g><path fill="#3a414a" d="M115-194c55 1 70 41 70 98S169 2 115 4C84 4 66-9 55-30l1 105H24l-1-265h31l2 30c10-21 28-34 59-34zm-8 174c40 0 45-34 45-75s-6-73-45-74c-42 0-51 32-51 76 0 43 10 73 51 73" id="p"/><path fill="#3a414a" d="M114-163C36-179 61-72 57 0H25l-1-190h30c1 12-1 29 2 39 6-27 23-49 58-41v29" id="q"/><path fill="#3a414a" d="M108 0H70L1-190h34L89-25l56-165h34" id="r"/><g id="c"><use transform="matrix(0.06172839506172839,0,0,0.06172839506172839,0,0)" xlink:href="#p"/><use transform="matrix(0.06172839506172839,0,0,0.06172839506172839,12.345679012345679,0)" xlink:href="#q"/><use transform="matrix(0.06172839506172839,0,0,0.06172839506172839,19.691358024691358,0)" xlink:href="#l"/><use transform="matrix(0.06172839506172839,0,0,0.06172839506172839,32.03703703703704,0)" xlink:href="#r"/></g><path fill="#333" d="M128-127c34 4 56 21 59 58 7 91-148 94-172 28-4-9-6-17-7-26l51-5c1 24 16 35 40 36 23 0 39-12 38-36-1-31-31-36-65-34v-40c32 2 59-3 59-33 0-20-13-33-34-33s-33 13-35 32l-50-3c6-44 37-68 86-68 50 0 83 20 83 66 0 35-22 52-53 58" id="s"/><path fill="#333" d="M182-182c0 78-84 86-111 141h115V0H12c-6-101 99-100 120-180 1-22-12-31-33-32-23 0-32 14-35 34l-49-3c5-45 32-70 84-70 51 0 83 22 83 69" id="t"/><g id="d"><use transform="matrix(0.04938271604938272,0,0,0.04938271604938272,0,0)" xlink:href="#s"/><use transform="matrix(0.04938271604938272,0,0,0.04938271604938272,9.876543209876544,0)" xlink:href="#t"/></g><path fill="#333" d="M135-194c52 0 70 43 70 98 0 56-19 99-73 100-30 1-46-15-58-35L72 0H24l1-261h50v104c11-23 29-37 60-37zM114-30c31 0 40-27 40-66 0-37-7-63-39-63s-41 28-41 65c0 36 8 64 40 64" id="u"/><path fill="#333" d="M123 10C108 53 80 86 19 72V37c35 8 53-11 59-39L3-190h52l48 148c12-52 28-100 44-148h51" id="v"/><path fill="#333" d="M115-3C79 11 28 4 28-45v-112H4v-33h27l15-45h31v45h36v33H77v99c-1 23 16 31 38 25v30" id="w"/><path fill="#333" d="M185-48c-13 30-37 53-82 52C43 2 14-33 14-96s30-98 90-98c62 0 83 45 84 108H66c0 31 8 55 39 56 18 0 30-7 34-22zm-45-69c5-46-57-63-70-21-2 6-4 13-4 21h74" id="x"/><path fill="#333" d="M137-138c1-29-70-34-71-4 15 46 118 7 119 86 1 83-164 76-172 9l43-7c4 19 20 25 44 25 33 8 57-30 24-41C81-84 22-81 20-136c-2-80 154-74 161-7" id="y"/><g id="e"><use transform="matrix(0.04938271604938272,0,0,0.04938271604938272,0,0)" xlink:href="#u"/><use transform="matrix(0.04938271604938272,0,0,0.04938271604938272,10.814814814814815,0)" xlink:href="#v"/><use transform="matrix(0.04938271604938272,0,0,0.04938271604938272,20.69135802469136,0)" xlink:href="#w"/><use transform="matrix(0.04938271604938272,0,0,0.04938271604938272,26.567901234567902,0)" xlink:href="#x"/><use transform="matrix(0.04938271604938272,0,0,0.04938271604938272,36.44444444444445,0)" xlink:href="#y"/></g><path fill="#3a414a" d="M-5 72V49h209v23H-5" id="z"/><path fill="#3a414a" d="M106-169C34-169 62-67 57 0H25v-261h32l-1 103c12-21 28-36 61-36 89 0 53 116 60 194h-32v-121c2-32-8-49-39-48" id="A"/><path fill="#3a414a" d="M179-190L93 31C79 59 56 82 12 73V49c39 6 53-20 64-50L1-190h34L92-34l54-156h33" id="B"/><path fill="#3a414a" d="M96-169c-40 0-48 33-48 73s9 75 48 75c24 0 41-14 43-38l32 2c-6 37-31 61-74 61-59 0-76-41-82-99-10-93 101-131 147-64 4 7 5 14 7 22l-32 3c-4-21-16-35-41-35" id="C"/><path fill="#3a414a" d="M141-36C126-15 110 5 73 4 37 3 15-17 15-53c-1-64 63-63 125-63 3-35-9-54-41-54-24 1-41 7-42 31l-33-3c5-37 33-52 76-52 45 0 72 20 72 64v82c-1 20 7 32 28 27v20c-31 9-61-2-59-35zM48-53c0 20 12 33 32 33 41-3 63-29 60-74-43 2-92-5-92 41" id="D"/><path fill="#3a414a" d="M24 0v-261h32V0H24" id="E"/><g id="f"><use transform="matrix(0.06172839506172839,0,0,0.06172839506172839,0,0)" xlink:href="#p"/><use transform="matrix(0.06172839506172839,0,0,0.06172839506172839,12.345679012345679,0)" xlink:href="#q"/><use transform="matrix(0.06172839506172839,0,0,0.06172839506172839,19.691358024691358,0)" xlink:href="#l"/><use transform="matrix(0.06172839506172839,0,0,0.06172839506172839,32.03703703703704,0)" xlink:href="#r"/><use transform="matrix(0.06172839506172839,0,0,0.06172839506172839,43.14814814814815,0)" xlink:href="#z"/><use transform="matrix(0.06172839506172839,0,0,0.06172839506172839,55.49382716049383,0)" xlink:href="#p"/><use transform="matrix(0.06172839506172839,0,0,0.06172839506172839,67.8395061728395,0)" xlink:href="#A"/><use transform="matrix(0.06172839506172839,0,0,0.06172839506172839,80.18518518518519,0)" xlink:href="#B"/><use transform="matrix(0.06172839506172839,0,0,0.06172839506172839,91.2962962962963,0)" xlink:href="#i"/><use transform="matrix(0.06172839506172839,0,0,0.06172839506172839,102.40740740740742,0)" xlink:href="#j"/><use transform="matrix(0.06172839506172839,0,0,0.06172839506172839,107.28395061728396,0)" xlink:href="#C"/><use transform="matrix(0.06172839506172839,0,0,0.06172839506172839,118.39506172839508,0)" xlink:href="#D"/><use transform="matrix(0.06172839506172839,0,0,0.06172839506172839,130.74074074074076,0)" xlink:href="#E"/></g><path fill="#333" d="M138-131c27 9 52 24 51 61 0 53-36 74-89 74S11-19 11-69c0-35 22-54 51-61-78-25-46-121 38-121 51 0 83 19 83 66 0 30-18 49-45 54zm-38-16c24 0 32-13 32-36 1-23-11-34-32-34-22 0-33 12-32 34 0 22 9 36 32 36zm1 116c27 0 37-17 37-43 0-25-13-39-39-39-24 0-37 15-37 40 0 27 11 42 39 42" id="F"/><use transform="matrix(0.04938271604938272,0,0,0.04938271604938272,0,0)" xlink:href="#F" id="g"/><g id="h"><use transform="matrix(0.04938271604938272,0,0,0.04938271604938272,0,0)" xlink:href="#u"/><use transform="matrix(0.04938271604938272,0,0,0.04938271604938272,10.814814814814815,0)" xlink:href="#v"/><use transform="matrix(0.04938271604938272,0,0,0.04938271604938272,20.69135802469136,0)" xlink:href="#w"/><use transform="matrix(0.04938271604938272,0,0,0.04938271604938272,26.567901234567902,0)" xlink:href="#x"/><use transform="matrix(0.04938271604938272,0,0,0.04938271604938272,36.44444444444445,0)" xlink:href="#y"/></g></defs></g></svg>