<svg xmlns="http://www.w3.org/2000/svg" xmlns:xlink="http://www.w3.org/1999/xlink" xmlns:lucid="lucid" width="1405" height="223"><g transform="translate(-758 -560)" lucid:page-tab-id="uWah7hOh4TN_"><path d="M980 620h20v24h-20z" stroke="#000" fill="#979ea8"/><use xlink:href="#a" transform="matrix(1,0,0,1,985,625) translate(0.061728395061730446 14.222222222222218)"/><path d="M1000 620h20v24h-20z" stroke="#000" fill="#979ea8"/><use xlink:href="#a" transform="matrix(1,0,0,1,1005,625) translate(0.061728395061730446 14.222222222222218)"/><path d="M1020 620h20v24h-20z" stroke="#000" fill="#979ea8"/><use xlink:href="#a" transform="matrix(1,0,0,1,1025,625) translate(0.061728395061730446 14.222222222222218)"/><path d="M1040 620h20v24h-20z" stroke="#000" fill="#979ea8"/><use xlink:href="#a" transform="matrix(1,0,0,1,1045,625) translate(0.061728395061730446 14.222222222222218)"/><path d="M1060 620h20v24h-20z" stroke="#000" fill="#979ea8"/><use xlink:href="#a" transform="matrix(1,0,0,1,1065,625) translate(0.061728395061730446 14.222222222222218)"/><path d="M1080 620h20v24h-20z" stroke="#000" fill="#979ea8"/><use xlink:href="#a" transform="matrix(1,0,0,1,1085,625) translate(0.061728395061730446 14.222222222222218)"/><path d="M1100 620h20v24h-20z" stroke="#000" fill="#979ea8"/><use xlink:href="#a" transform="matrix(1,0,0,1,1105,625) translate(0.061728395061730446 14.222222222222218)"/><path d="M1120 620h20v24h-20z" stroke="#000" fill="#979ea8"/><use xlink:href="#a" transform="matrix(1,0,0,1,1125,625) translate(0.061728395061730446 14.222222222222218)"/><path d="M820 620h20v24h-20z" stroke="#000" fill="#979ea8"/><use xlink:href="#a" transform="matrix(1,0,0,1,825,625) translate(0.061728395061730446 14.222222222222218)"/><path d="M840 620h20v24h-20z" stroke="#000" fill="#979ea8"/><use xlink:href="#a" transform="matrix(1,0,0,1,845,625) translate(0.061728395061730446 14.222222222222218)"/><path d="M860 620h20v24h-20z" stroke="#000" fill="#979ea8"/><use xlink:href="#a" transform="matrix(1,0,0,1,865,625) translate(0.061728395061730446 14.222222222222218)"/><path d="M880 620h20v24h-20z" stroke="#000" fill="#979ea8"/><use xlink:href="#a" transform="matrix(1,0,0,1,885,625) translate(0.061728395061730446 14.222222222222218)"/><path d="M900 620h20v24h-20z" stroke="#000" fill="#979ea8"/><use xlink:href="#a" transform="matrix(1,0,0,1,905,625) translate(0.061728395061730446 14.222222222222218)"/><path d="M920 620h20v24h-20z" stroke="#000" fill="#979ea8"/><use xlink:href="#a" transform="matrix(1,0,0,1,925,625) translate(0.061728395061730446 14.222222222222218)"/><path d="M940 620h20v24h-20z" stroke="#000" fill="#979ea8"/><use xlink:href="#a" transform="matrix(1,0,0,1,945,625) translate(0.061728395061730446 14.222222222222218)"/><path d="M960 620h20v24h-20z" stroke="#000" fill="#979ea8"/><use xlink:href="#a" transform="matrix(1,0,0,1,965,625) translate(0.061728395061730446 14.222222222222218)"/><path d="M1300 620h20v24h-20z" stroke="#000" fill="#979ea8"/><use xlink:href="#a" transform="matrix(1,0,0,1,1305,625) translate(0.061728395061730446 14.222222222222218)"/><path d="M1320 620h20v24h-20z" stroke="#000" fill="#979ea8"/><use xlink:href="#a" transform="matrix(1,0,0,1,1325,625) translate(0.061728395061730446 14.222222222222218)"/><path d="M1340 620h20v24h-20z" stroke="#000" fill="#979ea8"/><use xlink:href="#a" transform="matrix(1,0,0,1,1345,625) translate(0.061728395061730446 14.222222222222218)"/><path d="M1360 620h20v24h-20z" stroke="#000" fill="#979ea8"/><use xlink:href="#a" transform="matrix(1,0,0,1,1365,625) translate(0.061728395061730446 14.222222222222218)"/><path d="M1380 620h20v24h-20z" stroke="#000" fill="#979ea8"/><use xlink:href="#a" transform="matrix(1,0,0,1,1385,625) translate(0.061728395061730446 14.222222222222218)"/><path d="M1400 620h20v24h-20z" stroke="#000" fill="#979ea8"/><use xlink:href="#a" transform="matrix(1,0,0,1,1405,625) translate(0.061728395061730446 14.222222222222218)"/><path d="M1420 620h20v24h-20z" stroke="#000" fill="#979ea8"/><use xlink:href="#a" transform="matrix(1,0,0,1,1425,625) translate(0.061728395061730446 14.222222222222218)"/><path d="M1440 620h20v24h-20z" stroke="#000" fill="#979ea8"/><use xlink:href="#a" transform="matrix(1,0,0,1,1445,625) translate(0.061728395061730446 14.222222222222218)"/><path d="M1140 620h20v24h-20z" stroke="#000" fill="#979ea8"/><use xlink:href="#a" transform="matrix(1,0,0,1,1145,625) translate(0.061728395061730446 14.222222222222218)"/><path d="M1160 620h20v24h-20z" stroke="#000" fill="#979ea8"/><use xlink:href="#a" transform="matrix(1,0,0,1,1165,625) translate(0.061728395061730446 14.222222222222218)"/><path d="M1180 620h20v24h-20z" stroke="#000" fill="#979ea8"/><use xlink:href="#a" transform="matrix(1,0,0,1,1185,625) translate(0.061728395061730446 14.222222222222218)"/><path d="M1200 620h20v24h-20z" stroke="#000" fill="#979ea8"/><use xlink:href="#a" transform="matrix(1,0,0,1,1205,625) translate(0.061728395061730446 14.222222222222218)"/><path d="M1220 620h20v24h-20z" stroke="#000" fill="#979ea8"/><use xlink:href="#a" transform="matrix(1,0,0,1,1225,625) translate(0.061728395061730446 14.222222222222218)"/><path d="M1240 620h20v24h-20z" stroke="#000" fill="#979ea8"/><use xlink:href="#a" transform="matrix(1,0,0,1,1245,625) translate(0.061728395061730446 14.222222222222218)"/><path d="M1260 620h20v24h-20z" stroke="#000" fill="#979ea8"/><use xlink:href="#a" transform="matrix(1,0,0,1,1265,625) translate(0.061728395061730446 14.222222222222218)"/><path d="M1280 620h20v24h-20z" stroke="#000" fill="#979ea8"/><use xlink:href="#a" transform="matrix(1,0,0,1,1285,625) translate(0.061728395061730446 14.222222222222218)"/><path d="M819.5 699.5v-38.62M819.5 699.5v.5" stroke="#000" fill="none"/><path d="M819.5 646.12l4.63 14.26h-9.26z" stroke="#000"/><path d="M1460 695v-34.12M1460 695v.5" stroke="#000" fill="none"/><path d="M1460 646.12l4.63 14.26h-9.27z" stroke="#000"/><path d="M1620 620h20v24h-20z" stroke="#000" fill="#dfe3e8"/><use xlink:href="#a" transform="matrix(1,0,0,1,1625,625) translate(0.061728395061730446 14.222222222222218)"/><path d="M1640 620h20v24h-20z" stroke="#000" fill="#dfe3e8"/><use xlink:href="#a" transform="matrix(1,0,0,1,1645,625) translate(0.061728395061730446 14.222222222222218)"/><path d="M1660 620h20v24h-20z" stroke="#000" fill="#dfe3e8"/><use xlink:href="#a" transform="matrix(1,0,0,1,1665,625) translate(0.061728395061730446 14.222222222222218)"/><path d="M1680 620h20v24h-20z" stroke="#000" fill="#dfe3e8"/><use xlink:href="#a" transform="matrix(1,0,0,1,1685,625) translate(0.061728395061730446 14.222222222222218)"/><path d="M1700 620h20v24h-20z" stroke="#000" fill="#dfe3e8"/><use xlink:href="#a" transform="matrix(1,0,0,1,1705,625) translate(0.061728395061730446 14.222222222222218)"/><path d="M1720 620h20v24h-20z" stroke="#000" fill="#dfe3e8"/><use xlink:href="#a" transform="matrix(1,0,0,1,1725,625) translate(0.061728395061730446 14.222222222222218)"/><path d="M1740 620h20v24h-20z" stroke="#000" fill="#dfe3e8"/><use xlink:href="#a" transform="matrix(1,0,0,1,1745,625) translate(0.061728395061730446 14.222222222222218)"/><path d="M1760 620h20v24h-20z" stroke="#000" fill="#dfe3e8"/><use xlink:href="#a" transform="matrix(1,0,0,1,1765,625) translate(0.061728395061730446 14.222222222222218)"/><path d="M1460 620h20v24h-20z" stroke="#000" fill="#dfe3e8"/><use xlink:href="#a" transform="matrix(1,0,0,1,1465,625) translate(0.061728395061730446 14.222222222222218)"/><path d="M1480 620h20v24h-20z" stroke="#000" fill="#dfe3e8"/><use xlink:href="#a" transform="matrix(1,0,0,1,1485,625) translate(0.061728395061730446 14.222222222222218)"/><path d="M1500 620h20v24h-20z" stroke="#000" fill="#dfe3e8"/><use xlink:href="#a" transform="matrix(1,0,0,1,1505,625) translate(0.061728395061730446 14.222222222222218)"/><path d="M1520 620h20v24h-20z" stroke="#000" fill="#dfe3e8"/><use xlink:href="#a" transform="matrix(1,0,0,1,1525,625) translate(0.061728395061730446 14.222222222222218)"/><path d="M1540 620h20v24h-20z" stroke="#000" fill="#dfe3e8"/><use xlink:href="#a" transform="matrix(1,0,0,1,1545,625) translate(0.061728395061730446 14.222222222222218)"/><path d="M1560 620h20v24h-20z" stroke="#000" fill="#dfe3e8"/><use xlink:href="#a" transform="matrix(1,0,0,1,1565,625) translate(0.061728395061730446 14.222222222222218)"/><path d="M1580 620h20v24h-20z" stroke="#000" fill="#dfe3e8"/><use xlink:href="#a" transform="matrix(1,0,0,1,1585,625) translate(0.061728395061730446 14.222222222222218)"/><path d="M1600 620h20v24h-20z" stroke="#000" fill="#dfe3e8"/><use xlink:href="#a" transform="matrix(1,0,0,1,1605,625) translate(0.061728395061730446 14.222222222222218)"/><path d="M1940 620h20v24h-20z" stroke="#000" fill="#dfe3e8"/><use xlink:href="#a" transform="matrix(1,0,0,1,1945,625) translate(0.061728395061730446 14.222222222222218)"/><path d="M1960 620h20v24h-20z" stroke="#000" fill="#dfe3e8"/><use xlink:href="#a" transform="matrix(1,0,0,1,1965,625) translate(0.061728395061730446 14.222222222222218)"/><path d="M1980 620h20v24h-20z" stroke="#000" fill="#dfe3e8"/><use xlink:href="#a" transform="matrix(1,0,0,1,1985,625) translate(0.061728395061730446 14.222222222222218)"/><path d="M2000 620h20v24h-20z" stroke="#000" fill="#dfe3e8"/><use xlink:href="#a" transform="matrix(1,0,0,1,2005,625) translate(0.061728395061730446 14.222222222222218)"/><path d="M2020 620h20v24h-20z" stroke="#000" fill="#dfe3e8"/><use xlink:href="#a" transform="matrix(1,0,0,1,2025,625) translate(0.061728395061730446 14.222222222222218)"/><path d="M2040 620h20v24h-20z" stroke="#000" fill="#dfe3e8"/><use xlink:href="#a" transform="matrix(1,0,0,1,2045,625) translate(0.061728395061730446 14.222222222222218)"/><path d="M2060 620h20v24h-20z" stroke="#000" fill="#dfe3e8"/><use xlink:href="#a" transform="matrix(1,0,0,1,2065,625) translate(0.061728395061730446 14.222222222222218)"/><path d="M2080 620h20v24h-20z" stroke="#000" fill="#dfe3e8"/><use xlink:href="#a" transform="matrix(1,0,0,1,2085,625) translate(0.061728395061730446 14.222222222222218)"/><path d="M1780 620h20v24h-20z" stroke="#000" fill="#dfe3e8"/><use xlink:href="#a" transform="matrix(1,0,0,1,1785,625) translate(0.061728395061730446 14.222222222222218)"/><path d="M1800 620h20v24h-20z" stroke="#000" fill="#dfe3e8"/><use xlink:href="#a" transform="matrix(1,0,0,1,1805,625) translate(0.061728395061730446 14.222222222222218)"/><path d="M1820 620h20v24h-20z" stroke="#000" fill="#dfe3e8"/><use xlink:href="#a" transform="matrix(1,0,0,1,1825,625) translate(0.061728395061730446 14.222222222222218)"/><path d="M1840 620h20v24h-20z" stroke="#000" fill="#dfe3e8"/><use xlink:href="#a" transform="matrix(1,0,0,1,1845,625) translate(0.061728395061730446 14.222222222222218)"/><path d="M1860 620h20v24h-20z" stroke="#000" fill="#dfe3e8"/><use xlink:href="#a" transform="matrix(1,0,0,1,1865,625) translate(0.061728395061730446 14.222222222222218)"/><path d="M1880 620h20v24h-20z" stroke="#000" fill="#dfe3e8"/><use xlink:href="#a" transform="matrix(1,0,0,1,1885,625) translate(0.061728395061730446 14.222222222222218)"/><path d="M1900 620h20v24h-20z" stroke="#000" fill="#dfe3e8"/><use xlink:href="#a" transform="matrix(1,0,0,1,1905,625) translate(0.061728395061730446 14.222222222222218)"/><path d="M1920 620h20v24h-20z" stroke="#000" fill="#dfe3e8"/><use xlink:href="#a" transform="matrix(1,0,0,1,1925,625) translate(0.061728395061730446 14.222222222222218)"/><path d="M2100 695v-38.62M2100 695v.5" stroke="#000" fill="none"/><path d="M2100 641.62l4.64 14.26h-9.28z" stroke="#000"/><path d="M1580 666a6 6 0 0 1 6-6h388a6 6 0 0 1 6 6v48a6 6 0 0 1-6 6h-388a6 6 0 0 1-6-6z" stroke="#000" stroke-opacity="0" fill="#fff" fill-opacity="0"/><use xlink:href="#b" transform="matrix(1,0,0,1,1585,665) translate(80.7777777777778 28.5)"/><use xlink:href="#c" transform="matrix(1,0,0,1,1585,665) translate(126.2777777777778 28.5)"/><use xlink:href="#d" transform="matrix(1,0,0,1,1585,665) translate(198.38888888888889 28.5)"/><use xlink:href="#e" transform="matrix(1,0,0,1,1585,665) translate(236.11111111111111 28.5)"/><path d="M940 666a6 6 0 0 1 6-6h388a6 6 0 0 1 6 6v49.67a6 6 0 0 1-6 6H946a6 6 0 0 1-6-6z" stroke="#000" stroke-opacity="0" fill="#fff" fill-opacity="0"/><g><use xlink:href="#f" transform="matrix(1,0,0,1,945,665) translate(100.88888888888891 29)"/><use xlink:href="#g" transform="matrix(1,0,0,1,945,665) translate(157.5 29)"/><use xlink:href="#e" transform="matrix(1,0,0,1,945,665) translate(216 29)"/></g><defs><path d="M27 0v-27h64v-190l-56 39v-29l58-41h29v221h61V0H27" id="h"/><use transform="matrix(0.0493827160493827,0,0,0.0493827160493827,0,0)" xlink:href="#h" id="a"/><path fill="#3a414a" d="M126-127c33 6 58 20 58 59 0 88-139 92-164 29-3-8-5-16-6-25l32-3c6 27 21 44 54 44 32 0 52-15 52-46 0-38-36-46-79-43v-28c39 1 72-4 72-42 0-27-17-43-46-43-28 0-47 15-49 41l-32-3c6-42 35-63 81-64 48-1 79 21 79 65 0 36-21 52-52 59" id="i"/><path fill="#3a414a" d="M27 0v-27h64v-190l-56 39v-29l58-41h29v221h61V0H27" id="j"/><path fill="#3a414a" d="M16-82v-28h88v28H16" id="k"/><path fill="#3a414a" d="M101-251c68 0 85 55 85 127S166 4 100 4C33 4 14-52 14-124c0-73 17-127 87-127zm-1 229c47 0 54-49 54-102s-4-102-53-102c-51 0-55 48-55 102 0 53 5 102 54 102" id="l"/><g id="b"><use transform="matrix(0.055555555555555546,0,0,0.055555555555555546,0,0)" xlink:href="#i"/><use transform="matrix(0.055555555555555546,0,0,0.055555555555555546,11.111111111111109,0)" xlink:href="#j"/><use transform="matrix(0.055555555555555546,0,0,0.055555555555555546,22.222222222222218,0)" xlink:href="#k"/><use transform="matrix(0.055555555555555546,0,0,0.055555555555555546,28.83333333333333,0)" xlink:href="#l"/></g><path fill="#3a414a" d="M137 0h-34L2-248h35l83 218 83-218h36" id="m"/><path fill="#3a414a" d="M100-194c63 0 86 42 84 106H49c0 40 14 67 53 68 26 1 43-12 49-29l28 8c-11 28-37 45-77 45C44 4 14-33 15-96c1-61 26-98 85-98zm52 81c6-60-76-77-97-28-3 7-6 17-6 28h103" id="n"/><path fill="#3a414a" d="M114-163C36-179 61-72 57 0H25l-1-190h30c1 12-1 29 2 39 6-27 23-49 58-41v29" id="o"/><path fill="#3a414a" d="M135-143c-3-34-86-38-87 0 15 53 115 12 119 90S17 21 10-45l28-5c4 36 97 45 98 0-10-56-113-15-118-90-4-57 82-63 122-42 12 7 21 19 24 35" id="p"/><path fill="#3a414a" d="M24-231v-30h32v30H24zM24 0v-190h32V0H24" id="q"/><path fill="#3a414a" d="M100-194c62-1 85 37 85 99 1 63-27 99-86 99S16-35 15-95c0-66 28-99 85-99zM99-20c44 1 53-31 53-75 0-43-8-75-51-75s-53 32-53 75 10 74 51 75" id="r"/><path fill="#3a414a" d="M117-194c89-4 53 116 60 194h-32v-121c0-31-8-49-39-48C34-167 62-67 57 0H25l-1-190h30c1 10-1 24 2 32 11-22 29-35 61-36" id="s"/><g id="c"><use transform="matrix(0.055555555555555546,0,0,0.055555555555555546,0,0)" xlink:href="#m"/><use transform="matrix(0.055555555555555546,0,0,0.055555555555555546,12.22222222222222,0)" xlink:href="#n"/><use transform="matrix(0.055555555555555546,0,0,0.055555555555555546,23.33333333333333,0)" xlink:href="#o"/><use transform="matrix(0.055555555555555546,0,0,0.055555555555555546,29.94444444444444,0)" xlink:href="#p"/><use transform="matrix(0.055555555555555546,0,0,0.055555555555555546,39.944444444444436,0)" xlink:href="#q"/><use transform="matrix(0.055555555555555546,0,0,0.055555555555555546,44.33333333333332,0)" xlink:href="#r"/><use transform="matrix(0.055555555555555546,0,0,0.055555555555555546,55.44444444444443,0)" xlink:href="#s"/></g><path fill="#3a414a" d="M127-220V0H93v-220H8v-28h204v28h-85" id="t"/><path fill="#3a414a" d="M141-36C126-15 110 5 73 4 37 3 15-17 15-53c-1-64 63-63 125-63 3-35-9-54-41-54-24 1-41 7-42 31l-33-3c5-37 33-52 76-52 45 0 72 20 72 64v82c-1 20 7 32 28 27v20c-31 9-61-2-59-35zM48-53c0 20 12 33 32 33 41-3 63-29 60-74-43 2-92-5-92 41" id="u"/><path fill="#3a414a" d="M177-190C167-65 218 103 67 71c-23-6-38-20-44-43l32-5c15 47 100 32 89-28v-30C133-14 115 1 83 1 29 1 15-40 15-95c0-56 16-97 71-98 29-1 48 16 59 35 1-10 0-23 2-32h30zM94-22c36 0 50-32 50-73 0-42-14-75-50-75-39 0-46 34-46 75s6 73 46 73" id="v"/><g id="d"><use transform="matrix(0.055555555555555546,0,0,0.055555555555555546,0,0)" xlink:href="#t"/><use transform="matrix(0.055555555555555546,0,0,0.055555555555555546,9.944444444444443,0)" xlink:href="#u"/><use transform="matrix(0.055555555555555546,0,0,0.055555555555555546,21.05555555555555,0)" xlink:href="#v"/></g><path fill="#3a414a" d="M87 75C49 33 22-17 22-94c0-76 28-126 65-167h31c-38 41-64 92-64 168S80 34 118 75H87" id="w"/><path fill="#3a414a" d="M101-251c82-7 93 87 43 132L82-64C71-53 59-42 53-27h129V0H18c2-99 128-94 128-182 0-28-16-43-45-43s-46 15-49 41l-32-3c6-41 34-60 81-64" id="x"/><path fill="#3a414a" d="M115-194c53 0 69 39 70 98 0 66-23 100-70 100C84 3 66-7 56-30L54 0H23l1-261h32v101c10-23 28-34 59-34zm-8 174c40 0 45-34 45-75 0-40-5-75-45-74-42 0-51 32-51 76 0 43 10 73 51 73" id="y"/><path fill="#3a414a" d="M59-47c-2 24 18 29 38 22v24C64 9 27 4 27-40v-127H5v-23h24l9-43h21v43h35v23H59v120" id="z"/><path fill="#3a414a" d="M33-261c38 41 65 92 65 168S71 34 33 75H2C39 34 66-17 66-93S39-220 2-261h31" id="A"/><g id="e"><use transform="matrix(0.055555555555555546,0,0,0.055555555555555546,0,0)" xlink:href="#w"/><use transform="matrix(0.055555555555555546,0,0,0.055555555555555546,6.61111111111111,0)" xlink:href="#i"/><use transform="matrix(0.055555555555555546,0,0,0.055555555555555546,17.722222222222218,0)" xlink:href="#x"/><use transform="matrix(0.055555555555555546,0,0,0.055555555555555546,28.83333333333333,0)" xlink:href="#k"/><use transform="matrix(0.055555555555555546,0,0,0.055555555555555546,35.444444444444436,0)" xlink:href="#y"/><use transform="matrix(0.055555555555555546,0,0,0.055555555555555546,46.55555555555554,0)" xlink:href="#q"/><use transform="matrix(0.055555555555555546,0,0,0.055555555555555546,50.94444444444443,0)" xlink:href="#z"/><use transform="matrix(0.055555555555555546,0,0,0.055555555555555546,56.499999999999986,0)" xlink:href="#p"/><use transform="matrix(0.055555555555555546,0,0,0.055555555555555546,66.49999999999999,0)" xlink:href="#A"/></g><path fill="#3a414a" d="M110-160c48 1 74 30 74 79 0 53-28 85-80 85-65 0-83-55-86-122-5-90 50-162 133-122 14 7 22 21 27 39l-31 6c-5-40-67-38-82-6-9 19-15 44-15 74 11-20 30-34 60-33zm-7 138c34 0 49-23 49-58s-16-56-50-56c-29 0-50 16-49 49 1 36 15 65 50 65" id="B"/><g id="f"><use transform="matrix(0.055555555555555546,0,0,0.055555555555555546,0,0)" xlink:href="#B"/><use transform="matrix(0.055555555555555546,0,0,0.055555555555555546,11.111111111111109,0)" xlink:href="#i"/><use transform="matrix(0.055555555555555546,0,0,0.055555555555555546,22.222222222222218,0)" xlink:href="#k"/><use transform="matrix(0.055555555555555546,0,0,0.055555555555555546,28.83333333333333,0)" xlink:href="#i"/><use transform="matrix(0.055555555555555546,0,0,0.055555555555555546,39.944444444444436,0)" xlink:href="#x"/></g><path fill="#3a414a" d="M140-251c81 0 123 46 123 126C263-46 219 4 140 4 59 4 17-45 17-125s42-126 123-126zm0 227c63 0 89-41 89-101s-29-99-89-99c-61 0-89 39-89 99S79-25 140-24" id="C"/><path fill="#3a414a" d="M101-234c-31-9-42 10-38 44h38v23H63V0H32v-167H5v-23h27c-7-52 17-82 69-68v24" id="D"/><g id="g"><use transform="matrix(0.055555555555555546,0,0,0.055555555555555546,0,0)" xlink:href="#C"/><use transform="matrix(0.055555555555555546,0,0,0.055555555555555546,15.555555555555554,0)" xlink:href="#D"/><use transform="matrix(0.055555555555555546,0,0,0.055555555555555546,20.722222222222218,0)" xlink:href="#D"/><use transform="matrix(0.055555555555555546,0,0,0.055555555555555546,26.27777777777777,0)" xlink:href="#p"/><use transform="matrix(0.055555555555555546,0,0,0.055555555555555546,36.27777777777777,0)" xlink:href="#n"/><use transform="matrix(0.055555555555555546,0,0,0.055555555555555546,47.38888888888888,0)" xlink:href="#z"/></g></defs></g></svg>